<?xml version="1.0" encoding="UTF-8" standalone="no"?>
<!-- Created with Inkscape (http://www.inkscape.org/) -->

<svg
   xmlns:dc="http://purl.org/dc/elements/1.1/"
   xmlns:cc="http://creativecommons.org/ns#"
   xmlns:rdf="http://www.w3.org/1999/02/22-rdf-syntax-ns#"
   xmlns:svg="http://www.w3.org/2000/svg"
   xmlns="http://www.w3.org/2000/svg"
   xmlns:sodipodi="http://sodipodi.sourceforge.net/DTD/sodipodi-0.dtd"
   xmlns:inkscape="http://www.inkscape.org/namespaces/inkscape"
   id="svg2"
   version="1.1"
   inkscape:version="0.48.2 r9819"
   width="600"
   height="600"
   sodipodi:docname="daffodil-02.svg">
  <metadata
     id="metadata8">
    <rdf:RDF>
      <cc:Work
         rdf:about="">
        <dc:format>image/svg+xml</dc:format>
        <dc:type
           rdf:resource="http://purl.org/dc/dcmitype/StillImage" />
        <dc:title></dc:title>
      </cc:Work>
    </rdf:RDF>
  </metadata>
  <defs
     id="defs6" />
  <sodipodi:namedview
     pagecolor="#ffffff"
     bordercolor="#666666"
     borderopacity="1"
     objecttolerance="10"
     gridtolerance="10"
     guidetolerance="10"
     inkscape:pageopacity="0"
     inkscape:pageshadow="2"
     inkscape:window-width="1609"
     inkscape:window-height="932"
     id="namedview4"
     showgrid="false"
     borderlayer="true"
     inkscape:zoom="0.15556349"
     inkscape:cx="130.08304"
     inkscape:cy="240.78278"
     inkscape:window-x="148"
     inkscape:window-y="-16"
     inkscape:window-maximized="0"
     inkscape:current-layer="svg2" />
  <rect
     style="fill:#7535aa;fill-opacity:1;fill-rule:nonzero;stroke:#ff0000;stroke-width:0;stroke-linecap:round;stroke-linejoin:round;stroke-miterlimit:4;stroke-opacity:1;stroke-dasharray:none;stroke-dashoffset:0"
     id="rect3003"
     width="658.77789"
     height="650.70801"
     x="-26.819822"
     y="-22.957659" />
  <g
     id="g2987"
     transform="matrix(0.71728196,0,0,0.67425784,-46.855971,-165.47942)">
    <path
       style="fill:#eeead0"
       d="m 390.30728,1046.5742 c -6.70599,-1.2288 -12.94873,-2.8617 -13.87275,-3.6285 -1.40687,-1.1676 -1.57471,-2.5367 -1.03227,-8.42 0.68337,-7.4118 6.33706,-42.29489 7.03905,-43.43074 0.83891,-1.35739 2.66119,-21.72933 5.55441,-62.09496 1.63599,-22.825 3.84025,-48.7 4.89835,-57.5 1.05811,-8.8 2.21842,-18.86795 2.57848,-22.37322 l 0.65464,-6.37322 -3.81359,0.69281 c -2.09748,0.38105 -5.67078,1.31238 -7.94067,2.06962 -8.09664,2.70107 -21.38837,3.74865 -40.36006,3.18093 -24.31566,-0.72763 -32.12113,-2.4932 -49.52784,-11.20305 -12.76533,-6.38743 -13.12976,-6.50041 -19,-5.89032 -5.30041,0.55086 -6.20679,0.37607 -7.92371,-1.528 -1.92689,-2.13694 -1.91867,-2.19693 1.35194,-9.86278 1.80985,-4.24202 4.02311,-9.60971 4.91837,-11.92819 l 1.62774,-4.21542 -3.11773,-3.28458 c -4.19158,-4.4159 -6.33238,-8.91076 -7.02358,-14.74685 -0.86643,-7.31566 0.32531,-11.42292 4.96927,-17.1262 13.94899,-17.13089 14.64602,-18.59747 9.96267,-20.96198 C 271.11935,743.33972 261.87769,735.3706 253.05593,724.5 247.79657,718.01917 238,702.8646 238,701.2096 238,700.04607 226.88035,681.32948 219.74356,670.48036 209.32992,654.64989 209.23234,654.2562 209.4264,628.85764 l 0.16536,-21.64235 2.66639,-3.85765 c 1.46652,-2.1217 4.03498,-5.78843 5.70768,-8.14828 1.67271,-2.35985 3.66448,-5.78214 4.42616,-7.60509 1.54234,-3.69134 6.59098,-9.07101 13.05131,-13.90704 2.34911,-1.75848 7.99112,-6.12223 12.53781,-9.69723 4.54669,-3.575 9.28956,-7.175 10.5397,-8 1.25014,-0.825 3.74146,-3.2165 5.53627,-5.31445 5.5877,-6.53146 26.93171,-21.70395 37.44292,-26.61648 19.84896,-9.27661 21.88009,-10.91089 23.36681,-18.80121 1.08541,-5.76049 3.07379,-14.23209 7.10422,-30.26786 4.32304,-17.19999 5.3334,-20.60351 7.56987,-25.5 4.58567,-10.03977 6.28921,-14.05207 7.00558,-16.5 3.05252,-10.4309 17.83067,-24.2283 31.58828,-29.49194 1.44912,-0.55444 4.17044,-3.031 6.04739,-5.50349 1.87695,-2.47249 4.21018,-4.64903 5.18496,-4.83675 0.97478,-0.18773 3.5313,0.82272 5.68117,2.24543 5.11237,3.38321 11.03117,3.41089 18.54764,0.0867 5.67338,-2.50904 14.71659,-3.42139 15.84327,-1.5984 0.30647,0.49589 3.37053,1.20878 6.80902,1.5842 3.43848,0.37543 8.05179,1.51938 10.25179,2.54212 2.2,1.02274 6.25,2.37244 9,2.99933 2.75,0.6269 5.9,1.52087 7,1.98661 1.1,0.46574 3.8,1.38306 6,2.0385 9.17959,2.73485 31.57978,16.04684 36,21.39408 0.55,0.66535 3.25691,2.79111 6.01536,4.72393 2.75845,1.93281 6.40496,4.82267 8.10334,6.42192 3.15752,2.97319 21.49887,17.29523 23.9072,18.66819 1.48692,0.84768 6.55836,-1.06232 7.73006,-2.91128 0.41577,-0.6561 2.07218,-1.482 3.6809,-1.83533 1.60872,-0.35334 3.46114,-1.2885 4.11649,-2.07815 0.65535,-0.7896 2.11351,-1.43567 3.24035,-1.43567 1.12685,0 2.75925,-0.62476 3.62756,-1.38837 1.96667,-1.72951 13.50343,-5.89094 22.09971,-7.97159 13.09133,-3.16863 51.02117,-7.61981 65.02903,-7.63135 5.8025,-0.005 10.9775,-0.41183 11.5,-0.90457 1.32245,-1.24711 16.32781,-3.10832 24.859,-3.08343 5.55849,0.0162 9.2522,0.79172 17.091,3.58826 5.5,1.96216 12.925,4.50045 16.5,5.64065 6.89319,2.19849 11,4.3954 11,5.88439 0,0.83246 5.49888,7.08782 13.91035,15.82401 3.62697,3.76697 8.08965,11.74904 8.08965,14.46935 0,0.90029 0.64405,3.17831 1.43122,5.06228 2.48579,5.94934 5.76837,28.49593 6.16972,42.37712 0.24493,8.47105 -0.19796,18.17692 -1.20923,26.5 -0.87764,7.22329 -1.93918,16.73325 -2.35898,21.13325 -0.41979,4.4 -1.07536,9.4202 -1.45681,11.156 -0.6252,2.84501 -0.0938,3.85279 5.39274,10.22752 9.90216,11.50512 16.53962,21.42359 18.4933,27.63484 1.60761,5.11101 1.6906,6.75093 0.67828,13.4026 -1.77604,11.66988 -1.47967,14.94932 1.85976,20.57904 1.63124,2.75 2.97357,5.55612 2.98295,6.23581 0.009,0.6797 -1.81714,2.44962 -4.05892,3.93316 -4.59256,3.03922 -7.7841,8.58366 -11.50844,19.99285 -2.62697,8.04753 -7.42483,18.10429 -10.89558,22.83818 -29.85514,40.72054 -38.94784,50.06289 -63.77001,65.52087 -8.74306,5.44473 -9.74253,6.5866 -7.6216,8.70753 1.74721,1.74721 2.24223,14.01159 0.99305,24.60351 -0.64133,5.43797 -2.66451,14.24468 -4.68037,20.37325 -1.95291,5.93716 -5.07949,16.19484 -6.94796,22.79484 -3.2342,11.42417 -11.12568,31.14741 -13.70676,34.25742 -1.49019,1.79557 -3.3568,4.97615 -4.77019,8.12809 -0.58834,1.31203 -3.68623,4.91203 -6.8842,8 -3.19798,3.08797 -8.8624,10.33949 -12.58761,16.11449 -8.19059,12.69743 -11.60283,16.39928 -22.20238,24.08673 C 604.04401,946.45651 595.97723,951 591.86408,951 c -2.99966,0 -4.14465,0.58529 -5.86133,2.99614 -1.1734,1.64788 -4.05607,4.12288 -6.40595,5.5 C 575.89606,961.66492 574.12244,962 566.34364,962 556.14316,962 549.12301,960.28251 541,955.79964 523.16666,945.95789 481.03935,913.79392 453.43086,888.94107 439.86587,876.73002 433.06117,868.11571 425.82987,854 L 422.5,847.5 421.89155,857 c -0.33465,5.225 -1.1531,20.075 -1.81878,33 -0.66568,12.925 -1.88257,32.5 -2.70421,43.5 -1.96666,26.32935 -3.13392,47.44249 -4.33995,78.5 -0.95597,24.6178 -1.94077,32.9843 -4.20342,35.7106 -1.40344,1.6911 -3.93583,1.5357 -18.51791,-1.1364 z"
       id="path3001"
       inkscape:connector-curvature="0"
       sodipodi:nodetypes="scssssscsssssssscsssssssscssssssssssssssssscssssssssssscssscsssssssssssssssscsssssssssssssssssssscsssscs" />
    <path
       style="fill:#ded6ad"
       d="m 390,1045.6454 c -6.325,-1.2016 -12.12312,-2.5774 -12.88471,-3.0573 -1.0756,-0.6779 -1.24373,-2.5405 -0.75315,-8.344 0.63452,-7.5063 6.31069,-42.90572 7.07917,-44.14914 0.83891,-1.35739 2.66119,-21.72933 5.55441,-62.09496 1.63599,-22.825 3.85134,-48.7 4.923,-57.5 1.07166,-8.8 2.09086,-18.7 2.26488,-22 l 0.3164,-6 -3.74528,0.29269 c -2.0599,0.16098 -5.56197,0.93366 -7.78238,1.71707 -7.59514,2.67972 -20.76397,3.7342 -40.38265,3.23359 -24.98943,-0.63766 -31.26928,-1.99032 -48.54696,-10.4569 -13.14846,-6.44313 -14.6174,-6.85627 -22.2471,-6.25685 C 269.94452,831.33216 267,829.75033 267,827.37892 c 0,-0.7569 1.75273,-5.3143 3.89496,-10.12755 5.66629,-12.73124 5.64489,-12.56693 2.15445,-16.54232 -4.66728,-5.31573 -7.00294,-11.37096 -7.02371,-18.20905 -0.0206,-6.78708 1.29593,-9.51069 8.92144,-18.4563 C 281.04634,756.88863 284,752.55152 284,750.75062 284,749.01727 280.85498,746 279.04825,746 c -2.46008,0 -13.796,-8.92981 -20.42483,-16.08956 -7.69117,-8.30718 -13.80931,-17.20031 -19.97867,-29.04038 -5.32604,-10.22161 -8.39544,-15.38648 -16.99036,-28.58962 -11.51319,-17.68606 -11.42045,-17.33163 -11.21448,-42.85751 0.14839,-18.39088 0.44829,-22.43633 1.86138,-25.10952 0.92647,-1.75262 2.11374,-3.45188 2.63839,-3.77613 1.45367,-0.89842 6.37414,-8.47295 8.90335,-13.70575 2.26144,-4.6788 5.5502,-7.75244 20.14955,-18.83153 3.98615,-3.025 8.75103,-6.76875 10.5886,-8.31945 2.04692,-1.72736 4.22762,-2.69571 5.62993,-2.5 1.79039,0.24988 2.36556,-0.22454 2.64091,-2.17835 0.31372,-2.22597 7.43469,-10.0022 9.15938,-10.0022 0.37324,0 1.52589,-0.93622 2.56145,-2.08049 C 278.99995,538.02761 304.56998,522 307.94728,522 c 0.48811,0 4.31261,-2.025 8.49889,-4.5 4.18629,-2.475 8.04847,-4.5 8.58263,-4.5 0.53416,0 0.9712,1.04037 0.9712,2.31194 0,2.65957 -4.3948,6.34872 -10.48875,8.80462 -2.20619,0.88911 -4.47882,2.52861 -5.05029,3.64335 -1.88293,3.67289 -3.55822,5.10284 -6.78006,5.7871 -1.74949,0.37157 -3.8559,1.25041 -4.6809,1.95299 -0.825,0.70258 -3.01718,1.60026 -4.87151,1.99485 -4.84982,1.03201 -11.77238,6.44848 -12.48873,9.77165 -0.38009,1.76321 -1.55568,3.13123 -3.24162,3.77223 -5.71997,2.17473 -8.41092,9.33185 -5.53149,14.71211 2.11066,3.94379 1.73285,3.98133 -10.01466,0.99494 l -5.64801,-1.4358 -9.35787,6.18769 c -9.33332,6.17146 -18.5303,15.05715 -21.47145,20.7447 -1.01231,1.95761 -1.33135,4.17494 -0.91785,6.37911 0.67971,3.62318 0.40047,3.90769 -2.37659,2.42145 -1.38811,-0.74289 -2.35528,-0.35127 -4.32192,1.75 -3.73908,3.99507 -4.10314,6.15528 -3.99534,23.70707 0.14048,22.87303 2.10878,32.17792 8.62975,40.79596 3.55214,4.69446 12.1708,18.95273 17.35066,28.70404 10.15728,19.12152 24.85391,37.16509 36.34047,44.61649 2.42889,1.57564 4.64116,3.094 4.91616,3.37415 0.275,0.28015 2.16769,1.28013 4.20597,2.22219 2.03829,0.94205 5.41329,3.23961 7.5,5.10568 6.73754,6.02513 13.41153,8.42809 26.79403,9.64716 4.95,0.45092 11.025,1.35219 13.5,2.00283 2.78934,0.73327 6.97095,0.92455 11,0.50318 6.09645,-0.6376 6.76168,-0.96451 10.71484,-5.26565 3.07452,-3.34515 3.93633,-4.92141 3.18543,-5.8262 -0.74524,-0.89795 -0.45948,-1.54537 1.03516,-2.34527 3.60044,-1.9269 2.49008,-10.06402 -1.62941,-11.94099 -1.81527,-0.82709 -2.37969,-1.70385 -2.00912,-3.1209 0.62696,-2.39752 -1.16733,-3.76582 -2.427,-1.85079 -0.7335,1.11513 -1.14155,0.99645 -2.1382,-0.62188 -0.67743,-1.1 -1.2317,-2.9 -1.2317,-4 0,-1.69606 -0.75985,-2.04248 -5,-2.27955 -7.51131,-0.41996 -8.47062,-0.97971 -5.50842,-3.2141 1.3632,-1.02826 2.15052,-2.19758 1.74961,-2.59849 -0.40091,-0.40091 -1.62325,0.0804 -2.7163,1.06962 -1.63076,1.47581 -2.26109,1.57138 -3.51277,0.53258 -1.02804,-0.8532 -3.08135,-1.05956 -6.29759,-0.63291 -4.63433,0.61477 -4.80575,0.54417 -5.93356,-2.44373 -1.05586,-2.79729 -0.90714,-3.3428 1.6371,-6.0051 1.53915,-1.61058 3.4913,-2.92832 4.33812,-2.92832 0.84681,0 3.4981,-1.11958 5.89174,-2.48795 5.06899,-2.8978 8.6354,-3.19062 10.34722,-0.84957 1.44953,1.98235 4.99274,1.05133 4.16895,-1.09544 -0.31305,-0.8158 0.49079,-2.09373 1.89625,-3.01462 C 352.90216,701.67323 354,700.28927 354,699.47695 354,698.66463 354.40598,698 354.90217,698 c 0.4962,0 1.38456,-1.38375 1.97413,-3.07501 0.58958,-1.69125 1.49299,-2.81479 2.00759,-2.49675 1.20545,0.74501 4.11611,-0.3628 4.11611,-1.56661 0,-0.50842 -0.7875,-1.20368 -1.75,-1.54501 -0.9625,-0.34134 -2.425,-1.17022 -3.25,-1.84196 -0.825,-0.67173 -3.3,-1.5436 -5.5,-1.93748 -5.99982,-1.07419 -6.83508,-2.16494 -4.29195,-5.60472 1.61461,-2.18386 2.68527,-2.74636 4.40562,-2.31457 3.58131,0.89885 4.7427,-0.50726 2.15783,-2.61251 l -2.2715,-1.85002 2.5,-0.95701 c 1.375,-0.52635 3.4,-1.14225 4.5,-1.36866 1.40265,-0.28871 1.92417,-1.09789 1.7461,-2.70923 -0.25274,-2.28707 -0.1979,-2.29743 12,-2.26604 24.88582,0.064 25.20666,-0.027 24.14756,-6.85442 -0.29862,-1.925 -0.093,-7.775 0.45687,-13 1.09611,-10.41506 5.77357,-22.5452 10.28148,-26.66314 C 411.18826,616.54501 419.79555,612 422.02649,612 c 2.39979,0 4.31314,-2.59326 3.68515,-4.99467 C 425.38018,605.73779 425.67839,605 426.52219,605 427.95929,605 431,602.34669 431,601.09268 c 0,-0.42045 -1.62712,-2.85294 -3.61583,-5.40554 -5.64769,-7.24906 -3.43078,-9.58057 5.31943,-5.59439 3.52194,1.60443 5.11159,1.85685 6.81265,1.0818 1.66001,-0.75635 2.58311,-0.64662 3.66544,0.43571 1.2622,1.2622 2.20347,0.63255 7.38248,-4.93844 3.26471,-3.5118 8.3412,-9.1622 11.28109,-12.55645 2.93989,-3.39426 9.71618,-9.71106 15.05841,-14.03736 8.3782,-6.78491 10.7359,-8.15129 17.15474,-9.94188 6.93423,-1.93435 17.87081,-3.38541 35.94159,-4.76869 12.01875,-0.92002 30.8594,4.44351 39.32391,11.19468 2.29685,1.83193 8.67609,5.66249 14.17609,8.51236 13.05729,6.76575 13.08992,6.79082 26.5,20.36396 8.82015,8.9274 12.58704,13.60437 16.16478,20.07023 2.56563,4.63671 6.46122,10.5816 8.65687,13.21086 6.1344,7.34587 12.85874,22.53248 15.7351,35.53705 1.36344,6.16436 2.22983,11.8572 1.92531,12.65075 -0.63973,1.66713 1.51122,16.17821 2.58447,17.43569 1.37847,1.6151 25.89154,-5.55955 34.64363,-10.13974 2.31559,-1.2118 4.91721,-2.20328 5.78139,-2.20328 0.86417,0 1.86177,-0.7875 2.21689,-1.75 0.92595,-2.50964 1.83528,-2.90167 5.68741,-2.45195 2.44881,0.28588 3.57937,0.99917 3.97369,2.50709 0.30313,1.15913 0.45648,2.12717 0.3408,2.15119 -0.11569,0.024 -2.00871,0.94367 -4.20672,2.04367 -4.57561,2.28988 -5.11711,3.85094 -1.50362,4.33468 1.375,0.18407 2.84659,0.66566 3.27021,1.0702 1.25486,1.19837 -3.02144,2.78011 -16.26384,6.01573 -12.50148,3.0546 -17.73161,5.57191 -17.24954,8.30238 0.35734,2.02404 -2.58586,4.44499 -7.26944,5.97953 -2.65321,0.8693 -4.04983,1.9575 -4.23205,3.29748 -0.14959,1.1 -1.00501,5.43571 -1.90095,9.63492 C 656.671,721.02485 657.0598,726 659.35978,726 c 0.72691,0 4.93294,3.52497 9.34671,7.83327 6.33724,6.18579 8.47392,9.03298 10.15928,13.53751 1.17383,3.13734 2.13423,6.1532 2.13423,6.70192 0,1.51482 3.10284,5.9273 4.16806,5.9273 0.51593,0 2.59363,-1.125 4.61713,-2.5 2.02349,-1.375 4.6243,-2.5 5.77958,-2.5 2.25245,0 8.43523,-6.84079 8.43523,-9.33295 0,-0.79763 1.0125,-1.70498 2.25,-2.01634 2.96827,-0.74683 15.75,-10.59778 15.75,-12.13861 0,-0.66117 0.93715,-2.05023 2.08255,-3.08681 C 726.3365,726.3855 729,720.7804 729,718.07697 c 0,-0.92333 2.05776,-3.68087 4.57279,-6.12787 2.51504,-2.44701 6.61296,-7.5991 9.10651,-11.4491 2.49354,-3.85 6.04149,-8.575 7.88434,-10.5 C 753.97686,686.43462 757,679.59904 757,675.44685 c 0,-1.26593 -1.03642,-3.12185 -2.30316,-4.12427 -3.57356,-2.82789 -3.97238,-5.12193 -1.70483,-9.80608 2.15492,-4.45147 4.78612,-5.80155 13.50799,-6.93099 4.60271,-0.59604 8.5,-4.32597 8.5,-8.135 0,-1.7147 -1.24812,-3.3421 -4.20715,-5.48561 -4.64882,-3.36759 -7.43706,-7.06852 -8.30603,-11.0249 -0.49843,-2.26932 -9.27058,-14.17617 -14.13789,-19.19 -2.471,-2.54539 -4.97303,-2.15457 -8.00716,1.25072 -1.47051,1.6504 -2.89622,2.77816 -3.16825,2.50613 -0.27202,-0.27202 0.30955,-1.38315 1.29239,-2.46918 1.42367,-1.57313 1.68989,-3.1454 1.30943,-7.73325 -0.39154,-4.72139 -0.0541,-6.55512 1.87355,-10.18047 C 742.942,591.69194 744,588.75029 744,587.58694 c 0,-1.16334 0.88576,-4.5385 1.96835,-7.50035 1.86282,-5.09646 1.87807,-5.538 0.28439,-8.23588 C 745.32657,570.28282 744.21581,569 743.78439,569 743.35298,569 743,566.84 743,564.2 c 0,-2.64 -0.49169,-5.29169 -1.09264,-5.89264 -0.75848,-0.75848 -0.77982,-1.67715 -0.0698,-3.00388 0.59363,-1.1092 0.66178,-2.49549 0.16242,-3.30348 -0.48946,-0.79197 -0.45938,-2.14164 0.0698,-3.13038 1.55988,-2.91466 1.05225,-4.62218 -1.56978,-5.28026 -1.80579,-0.45323 -2.5,-1.29999 -2.5,-3.0494 0,-1.33206 -0.45,-2.70004 -1,-3.03996 -1.83879,-1.13643 -1.028,-4.31816 1.82823,-7.17439 3.8272,-3.8272 3.38566,-9.49547 -0.93865,-12.04991 -2.57394,-1.52046 -3.56478,-3.99944 -3.008,-7.5257 0.0651,-0.4125 -0.32554,-0.75 -0.86816,-0.75 -0.54262,0 -1.65819,1.60739 -2.47904,3.57197 -1.68791,4.03974 -3.53438,3.7453 -3.53438,-0.5636 0,-1.96282 -0.61308,-3.06818 -1.93434,-3.48753 -1.06389,-0.33767 -1.93445,-1.38049 -1.93456,-2.31739 -1.2e-4,-0.9369 -0.23505,-3.27845 -0.52207,-5.20345 -2.03318,-13.63639 -1.96436,-15.51355 0.67306,-18.35937 3.20604,-3.45938 3.46027,-10.57845 0.66207,-18.53982 C 723.87487,462.05849 723,458.8163 723,457.89595 c 0,-4.38669 -12.87566,-2.48019 -17.58773,2.60421 -1.95634,2.11093 -2.70627,2.33856 -4.9251,1.49496 -3.92857,-1.49364 -5.18925,-1.22491 -5.88697,1.25488 -0.61677,2.19206 -0.67084,2.2006 -2.09984,0.33183 -1.25075,-1.63566 -1.84437,-1.74612 -4.03062,-0.75 -4.06531,1.85228 -6.4612,1.38882 -9.46974,-1.83183 -2.79111,-2.9879 -7.24217,-4.0352 -8.5,-2 -0.99789,1.61461 -5.02152,1.14957 -7.32284,-0.84635 -2.84206,-2.46491 -10.19437,-2.1569 -16.3723,0.68588 -5.75071,2.64619 -6.05007,2.65198 -8.30486,0.16047 -1.90997,-2.1105 -5.95641,-2.68856 -7,-1 -0.85166,1.37801 -4.11757,1.25333 -6.5481,-0.25 -1.785,-1.10405 -2.36721,-0.85471 -4.98643,2.13551 -1.63101,1.86203 -2.96547,3.76596 -2.96547,4.23095 0,0.46499 -1.125,1.12779 -2.5,1.4729 -1.375,0.3451 -2.50251,1.14117 -2.50558,1.76905 -0.0143,2.93471 -2.18567,8.501 -3.51513,9.01116 -0.8149,0.31271 -3.14336,-0.55911 -5.17435,-1.93738 -2.70498,-1.83565 -4.44328,-2.34108 -6.49882,-1.88961 -2.35228,0.51665 -2.80612,0.28956 -2.80612,-1.40411 0,-3.63972 -2.1582,-3.4954 -5.71023,0.38185 l -3.46948,3.78714 -2.38978,-2.90373 c -2.37497,-2.88574 -2.39373,-2.88979 -3.02678,-0.65373 -0.81949,2.89462 -3.20134,2.89462 -4.33245,0 -1.29237,-3.30729 -4.89779,-6.77956 -8.68078,-8.3602 -4.3134,-1.80225 -4.38779,-1.78773 -4.40581,0.8602 -0.0121,1.77234 -0.21222,1.93868 -0.9428,0.78354 -0.5216,-0.82471 -0.55108,-1.92 -0.0674,-2.50284 0.4975,-0.59945 0.32151,-1.77295 -0.41745,-2.78353 -1.45028,-1.98338 -7.50646,-2.39778 -9.26994,-0.6343 -0.61207,0.61207 -1.66287,0.77294 -2.3351,0.35748 -0.87258,-0.53928 -0.63024,-1.0722 0.84713,-1.86286 C 551.79125,456.54135 552,456.19919 552,454 c 0,-0.55 1.32448,-1 2.9433,-1 1.86012,0 3.48677,-0.77592 4.42008,-2.10841 0.83209,-1.18798 1.98054,-1.79707 2.63073,-1.39523 0.63467,0.39225 2.13313,-0.14197 3.32992,-1.18715 1.19678,-1.04517 3.30097,-2.39472 4.67597,-2.99899 8.3713,-3.67891 23.14765,-7.57453 25.42133,-6.70204 0.88228,0.33857 2.2537,0.0765 3.0476,-0.58239 0.7939,-0.65889 1.87918,-0.92868 2.41173,-0.59955 0.53255,0.32914 5.38976,-0.0549 10.79381,-0.85347 10.75475,-1.58921 38.7436,-4.16649 47.07553,-4.33483 7.88015,-0.15921 9.64591,-0.49587 10.83107,-2.06503 0.83467,-1.10511 4.02553,-1.44758 14,-1.50262 14.13284,-0.078 14.72199,0.0131 24.91893,3.8531 12.51966,4.71467 13.45375,5.09703 14.148,5.79127 0.37693,0.37694 1.42062,0.68534 2.3193,0.68534 2.52252,0 7.01619,2.36104 7.0249,3.69098 0.0135,2.06478 -2.24445,2.68453 -3.50415,0.9618 C 727.82336,442.74375 726.91318,442 726.46544,442 c -0.44774,0 0.22151,1.10232 1.48722,2.44961 1.63972,1.7454 3.05533,2.32242 4.92431,2.00718 2.23543,-0.37705 3.43575,0.53803 8.12303,6.19271 3.025,3.64932 6.22264,7.35859 7.10587,8.24282 3.04185,3.04527 4.81665,6.64819 5.97067,12.1207 0.63639,3.01784 1.54876,5.97617 2.0275,6.57406 0.47874,0.5979 1.04919,2.8479 1.26768,5 0.21848,2.15211 0.63198,4.58792 0.91888,5.41292 3.18323,9.15351 4.28996,38.20647 2.14722,56.36675 -0.85228,7.22329 -1.77496,16.00954 -2.0504,19.525 -0.27544,3.51547 -0.85721,8.29955 -1.29282,10.63129 -0.50329,2.69397 -0.39149,4.94361 0.30668,6.17085 1.53455,2.6974 6.85096,9.60311 8.31918,10.80611 3.23626,2.65167 12.49111,16.44371 14.36633,21.40944 1.61696,4.28182 1.97627,6.8781 1.53487,11.09056 -0.31698,3.025 -0.87152,8.28485 -1.23231,11.68856 -0.59947,5.65538 -0.38603,6.70726 2.47733,12.20904 1.72333,3.31126 3.13332,6.48252 3.13332,7.04725 0,0.56472 -1.73909,2.17765 -3.86464,3.58427 -4.17213,2.76099 -8.19347,9.26203 -10.18836,16.47088 -2.88041,10.40885 -11.83178,26.47765 -23.08485,41.44016 -16.57124,22.03374 -29.28072,34.73167 -45.29544,45.25427 -17.67411,11.61291 -16.73782,10.65878 -14.85152,15.13452 3.27599,7.7732 0.13853,34.81249 -5.70513,49.16807 -1.00816,2.47664 -3.23493,9.71822 -4.94838,16.09241 -5.53494,20.59046 -16.28343,42.21691 -25.55139,51.41057 -5.03509,4.99472 -13.07184,15.81767 -16.11379,21.70014 C 631.04359,927.55153 600.78185,950 592.18054,950 c -2.59348,0 -4.06676,0.81298 -6.51587,3.59557 -5.66748,6.43918 -9.39912,7.66301 -22.07633,7.24019 -10.04516,-0.33503 -11.74689,-0.67965 -18.08834,-3.66302 -6.65593,-3.13132 -23.79754,-14.21934 -33.5,-21.66942 -2.475,-1.90044 -6.80702,-5.04806 -9.6267,-6.99473 -2.81969,-1.94666 -7.09469,-5.24082 -9.5,-7.32035 C 490.46798,919.10871 483.775,913.61093 478,908.97096 472.225,904.33099 461.39901,895.05405 453.94225,888.35555 439.88392,875.72678 435.09795,869.7509 426.962,854.66739 424.68735,850.45032 422.48375,847 422.06511,847 c -0.41864,0 -1.03464,5.5125 -1.36889,12.25 -1.77191,35.71648 -2.90856,55.34073 -4.3296,74.75 -2.18884,29.89638 -3.11696,47.1106 -3.85497,71.5 -0.68854,22.7547 -2.0053,37.6854 -3.58363,40.6345 -1.27634,2.3849 -4.19757,2.3094 -18.92802,-0.4891 z m 186.79074,-90.7223 c 1.69905,-0.59229 4.33952,-2.72979 5.86771,-4.75 1.52819,-2.0202 3.74777,-4.73156 4.93241,-6.02524 4.78418,-5.22454 3.58437,-32.05757 -2.25515,-50.43505 -0.83663,-2.63295 -1.24107,-5.51705 -0.89876,-6.4091 0.34231,-0.89205 -0.24377,-3.91281 -1.30241,-6.71281 -1.05863,-2.79999 -2.80856,-7.7909 -3.88873,-11.0909 -2.16829,-6.62427 -4.14974,-7.67052 -5.6816,-3 -1.36187,4.15225 -1.27199,4.12158 -4.16317,1.42061 -3.69858,-3.45526 -5.67282,-7.70161 -4.93936,-10.62397 C 565.11965,854.67508 563.62092,852 561.49419,852 c -0.69351,0 -1.51563,0.974 -1.82694,2.16445 -0.47809,1.82819 -0.80692,1.96452 -2.11664,0.87756 C 556.69778,854.33421 556,852.29031 556,850.5 c 0,-1.79031 -0.60647,-3.75843 -1.34771,-4.37361 -0.74124,-0.61517 -1.38385,-2.38965 -1.42802,-3.94329 -0.0442,-1.55364 -1.12521,-4.59291 -2.40229,-6.75395 L 548.5,831.5 l -0.33323,5 c -0.18327,2.75 0.18131,12.96647 0.8102,22.70327 1.28098,19.83303 0.76176,23.128 -3.20648,20.34853 C 543.45777,877.9319 541,878.99871 541,881.62244 c 0,2.41434 -1.73941,1.49439 -5.02996,-2.66027 -1.75891,-2.22081 -4.89123,-4.90164 -6.9607,-5.9574 -2.06947,-1.05577 -4.0064,-2.55472 -4.30429,-3.33101 C 524.177,868.29767 515.59541,863 513.89437,863 c -1.11731,0 -5.03901,7.70614 -4.72355,9.28178 0.56595,2.82681 -1.25526,6.5226 -3.49068,7.08365 -1.28549,0.32264 -2.85476,1.72241 -3.48726,3.11059 -0.84774,1.8606 -1.91817,2.52398 -4.07267,2.52398 -2.28653,0 -3.37732,0.77059 -5.01158,3.54046 -1.72956,2.93138 -2.40473,3.37144 -3.92469,2.55798 -1.4893,-0.79705 -1.77629,-1.95747 -1.5206,-6.14845 0.3918,-6.42208 -0.53786,-8.15692 -4.53983,-8.47174 -2.59355,-0.20402 -3.24997,0.17743 -3.75278,2.18079 -0.69531,2.77033 -2.69029,2.62121 -3.23641,-0.24191 -0.50859,-2.66635 -1.78375,-3.24025 -5.46296,-2.45866 -2.71539,0.57684 -3.14217,1.07506 -2.96836,3.46521 0.17975,2.47192 -0.0819,2.73704 -2.28541,2.31581 -1.71403,-0.32765 -2.78858,0.0852 -3.453,1.32667 -1.74163,3.25427 -1.02921,4.6998 4.15015,8.42081 2.81311,2.02101 5.31272,4.43162 5.55468,5.35691 0.24197,0.92529 1.65284,2.46937 3.13526,3.43129 1.48243,0.96193 4.24274,2.75603 6.13403,3.98689 1.89129,1.23087 5.50561,4.3897 8.03182,7.01964 2.5262,2.62993 5.79611,5.55493 7.26646,6.5 1.47036,0.94506 7.75604,5.60978 13.96819,10.36604 15.0034,11.48716 24.63481,17.92713 28.29482,18.91911 1.65,0.44721 6.15,1.92361 10,3.2809 16.59511,5.85047 22.0857,6.73844 28.29074,4.57535 z M 659,856.97856 c 0,-0.56179 -1.08178,-1.51433 -2.40397,-2.11676 -1.84819,-0.84209 -2.55977,-2.16647 -3.07792,-5.72856 -0.98258,-6.75492 -3.59635,-10.29518 -10.16886,-13.77342 -1.96299,-1.03883 -2.19615,-0.86106 -2.62324,2 -0.49173,3.29403 0.70802,7.67236 2.38665,8.70981 0.54314,0.33568 1.0446,1.69483 1.11435,3.02035 0.17512,3.3276 1.59169,4.91002 4.39543,4.91002 1.30766,0 2.37756,0.38123 2.37756,0.84719 0,1.06094 3.91798,2.99494 6.25,3.08513 0.9625,0.0372 1.75,-0.39197 1.75,-0.95376 z M 561,839 c 0,-0.55 -0.45,-1 -1,-1 -0.55,0 -1,0.45 -1,1 0,0.55 0.45,1 1,1 0.55,0 1,-0.45 1,-1 z m 60.90606,-41.61319 c -1.45303,-1.7508 -2.38084,-1.06645 -1.53666,1.13344 0.33906,0.88358 1.0915,1.31293 1.6721,0.9541 0.72494,-0.44804 0.68251,-1.10197 -0.13544,-2.08754 z M 621.36352,792.25 c -0.67215,-2.74007 -4.64195,-7.25 -6.38171,-7.25 -0.50333,0 -2.46864,-1.55349 -4.36735,-3.45221 -3.7082,-3.7082 -3.99147,-7.54779 -0.55685,-7.54779 2.55973,0 3.43824,-1.87776 1.25577,-2.68412 -0.99736,-0.3685 -2.10511,-1.10531 -2.46166,-1.63737 -0.87415,-1.30442 -7.0852,2.62182 -10.42336,6.589 l -2.65609,3.15658 2.61387,0.87129 c 1.60625,0.53542 2.61386,1.61013 2.61386,2.78795 0,1.05417 0.52707,1.91667 1.17126,1.91667 0.64419,0 1.9795,0.73145 2.96736,1.62545 2.20783,1.99806 13.88678,8.20077 15.63043,8.30135 0.88766,0.0512 1.06632,-0.75328 0.59447,-2.6768 z m 43.99811,-1.75 c 0.31658,-0.825 0.25222,-1.51431 -0.14301,-1.5318 -0.39524,-0.0175 -1.53476,-0.65055 -2.53227,-1.40678 -1.58086,-1.1985 -1.67266,-1.89856 -0.71522,-5.4542 0.60413,-2.24357 2.16349,-5.22845 3.46523,-6.63306 1.30175,-1.40461 2.67117,-3.77341 3.04314,-5.264 0.37198,-1.49059 1.3592,-3.46804 2.19383,-4.39434 1.36043,-1.50985 1.33406,-1.99473 -0.25478,-4.68442 -1.4768,-2.50002 -1.55413,-3.26311 -0.46379,-4.57689 1.08312,-1.30508 1.04381,-2.30678 -0.2282,-5.81558 -2.0284,-5.59528 -3.10154,-9.94343 -2.84075,-11.51014 0.20964,-1.25943 -6.484,-8.22879 -7.90324,-8.22879 -0.40573,0 -1.29377,-0.67005 -1.97343,-1.48899 -1.72903,-2.08334 -2.51097,-1.35291 -8.5151,7.95427 -5.51291,8.5457 -12.15816,14.47907 -23.24404,20.75399 -2.8875,1.63441 -5.25,3.18327 -5.25,3.44193 0,0.25866 0.5625,1.4532 1.25,2.65454 0.6875,1.20134 1.25,3.98426 1.25,6.18426 l 0,4 4.11569,4.6e-4 c 3.34336,3.8e-4 4.67858,0.60304 7.1153,3.21157 1.71107,1.8317 2.52052,3.38717 1.88432,3.62097 -1.59623,0.58659 0.60285,4.06947 2.84809,4.51078 2.61977,0.51493 4.13003,-1.42381 2.57177,-3.3014 -1.87813,-2.26301 0.49607,-1.95516 2.67587,0.34697 0.98393,1.03914 3.10387,1.88289 4.71097,1.875 1.60711,-0.008 3.45672,0.7169 4.11025,1.61065 0.65352,0.89375 1.96764,1.625 2.92025,1.625 0.95262,0 2.8762,0.9 4.27462,2 3.02939,2.38292 4.84996,2.54448 5.6345,0.5 z m -85.1783,-328.71667 c -0.71756,-0.71756 -1.18333,-0.7766 -1.18333,-0.15 0,1.33478 1.18261,2.51739 1.85,1.85 0.28417,-0.28416 -0.0158,-1.04916 -0.66667,-1.7 z M 710,437.58742 c 0,-0.22691 -3.04705,-1.57691 -6.77121,-3 -5.14587,-1.96634 -8.44638,-2.55902 -13.75,-2.46911 -5.32545,0.0903 -6.26806,0.29917 -3.97879,0.88169 1.65,0.41985 5.025,0.8441 7.5,0.94278 2.475,0.0987 6.975,1.00575 10,2.01572 6.04975,2.01987 7,2.241 7,1.62892 z M 348.5,740 c -0.33992,-0.55 -0.14148,-1 0.44098,-1 0.58246,0 1.05902,0.45 1.05902,1 0,0.55 -0.19844,1 -0.44098,1 -0.24254,0 -0.7191,-0.45 -1.05902,-1 z M 716,677 c 0.825,-0.53316 2.625,-0.94464 4,-0.9144 2.28958,0.0503 2.33166,0.12731 0.5,0.9144 -1.1,0.47269 -2.9,0.88417 -4,0.9144 -1.65073,0.0454 -1.73805,-0.11431 -0.5,-0.9144 z M 336.38117,464 c 0.28776,-1.375 0.81045,-4.3 1.16153,-6.5 0.35108,-2.2 1.74573,-5.35 3.09921,-7 l 2.46089,-3 -0.69955,4 c -0.38475,2.2 -2.01483,6.475 -3.62241,9.5 -1.60758,3.025 -2.68744,4.375 -2.39967,3 z m 184.69664,0.0693 c -0.7822,-0.49507 -1.9072,-2.40068 -2.5,-4.23469 -1.44633,-4.4747 -4.55819,-4.51513 -6.50828,-0.0846 -0.78675,1.7875 -1.91175,3.24723 -2.5,3.24385 -1.41093,-0.008 -11.13353,-9.06956 -11.796,-10.99385 -0.80594,-2.34107 -4.09164,0.068 -5.23033,3.83485 -1.06533,3.52421 -2.2884,4.06063 -3.22658,1.41515 -1.088,-3.06792 -3.55554,-5.25 -5.93681,-5.25 -1.27062,0 -3.84778,-1.35 -5.72703,-3 -1.87924,-1.65 -4.4824,-3.00297 -5.7848,-3.00659 C 470.56559,445.98979 468.15,445.09275 466.5,444 c -1.65,-1.09275 -4.2375,-1.98979 -5.75,-1.99341 C 459.2375,442.00297 458,441.55 458,441 c 0,-0.55 -0.83026,-1 -1.84501,-1 -2.22992,0 -4.38111,-2.37677 -6.11352,-6.7546 -1.8199,-4.59892 -7.12978,-8.91558 -11.97363,-9.73394 -2.45452,-0.41469 -4.494,-1.43924 -5.09303,-2.55853 -0.54951,-1.02677 -2.55261,-2.1583 -4.45133,-2.5145 -1.89872,-0.35621 -4.00065,-1.30846 -4.67095,-2.11612 -0.67031,-0.80767 -3.02063,-2.38774 -5.22294,-3.51128 -2.20232,-1.12354 -4.62707,-2.66565 -5.38833,-3.42691 C 412.48,408.62285 410.62794,408 409.12557,408 c -3.09998,0 -11.40753,-5.64689 -10.84061,-7.3687 0.20487,-0.62221 2.81207,-1.3733 5.79377,-1.66908 2.9817,-0.29578 7.61597,-1.53328 10.29839,-2.75 5.3842,-2.44223 13.48904,-2.94626 15.47254,-0.96222 0.68731,0.6875 2.23981,1.32062 3.45,1.40694 1.21019,0.0863 4.00034,0.25995 6.20034,0.38586 2.2,0.12591 4.69734,0.83094 5.54965,1.56673 2.04255,1.76334 9.57584,4.39047 12.58965,4.39047 1.31331,0 3.16923,0.40614 4.12427,0.90254 0.95504,0.49639 3.76143,1.44476 6.23643,2.10749 11.07543,2.96566 23.83948,10.67936 35.10612,21.21571 1.01495,0.94915 4.18406,3.36957 7.04248,5.37871 2.85842,2.00914 6.28434,4.94505 7.61316,6.52426 1.32881,1.57921 2.86735,2.87129 3.41897,2.87129 0.55162,0 2.19912,0.91105 3.66111,2.02455 C 543.02158,457.87089 545.24548,460 541.52851,460 c -0.80931,0 -4.01531,1.125 -7.12443,2.5 -5.80445,2.56701 -10.81718,3.15729 -13.32627,1.56925 z M 344.06395,443.30902 c -0.0352,-1.75504 0.41599,-3.4876 1.00258,-3.85014 1.98222,-1.22507 2.2958,0.54315 0.67411,3.80114 l -1.61273,3.23998 -0.064,-3.19098 z M 347,434.98485 c 0,-3.60281 5.88277,-12.5557 12.2631,-18.66301 4.23892,-4.05752 9.02243,-7.32056 14.93219,-10.18588 4.85337,-2.35313 8.94547,-5.0041 9.26151,-5.99985 0.31142,-0.98118 1.91166,-3.07299 3.55609,-4.64846 l 2.98988,-2.86449 3.11727,3.18842 c 1.7145,1.75363 2.64044,3.18842 2.05763,3.18842 -0.5828,0 -1.3256,-0.43035 -1.65068,-0.95633 -0.97154,-1.57199 -3.26454,-0.0915 -4.50809,2.91071 -1.63401,3.94483 -5.95078,7.67592 -9.68645,8.37223 -4.02199,0.74967 -12.68596,5.9261 -17.70964,10.58089 -2.13246,1.97588 -5.86676,6.63 -8.29845,10.3425 C 348.78405,437.18176 347,438.51742 347,434.98485 z"
       id="path2999"
       inkscape:connector-curvature="0"
       sodipodi:nodetypes="scssssscsssssssssssssssssssssssssssssssssssssscsssssssssssssssssssssssssscsssssssssssssssssssscsssssssssssssssssssssssssscsssssccsssssssssssssssssssssssssssssssssssssssssscscssssscsssscssssssssssssssssssscssssscsssscscsssssssssssscssssscscssssssssssssssssssssssssssssssssssssssssssscssssssssssssscsscscssssssssssssssssssssssscssssssssssssssssscssssssssssssssssscssssssscsssssssssssssssscsssssscsssscsccssssssssssssscscsssscssscsscsssssssssssssssssssssscssssssssssssccccscccssssscssssssss" />
    <path
       style="fill:#fbd402"
       d="m 391.50098,1045.426 c -15.1109,-2.7744 -15.92739,-3.3699 -14.97968,-10.926 0.99535,-7.9358 6.46637,-40.67103 6.92001,-41.40504 0.83891,-1.35739 2.66119,-21.72933 5.55441,-62.09496 1.63599,-22.825 3.85118,-48.7 4.92265,-57.5 1.07147,-8.8 2.25604,-19.4875 2.63237,-23.75 l 0.68424,-7.75 -2.60499,0 c -1.43275,0 -6.99811,1.20475 -12.36749,2.67721 -9.12279,2.50179 -11.17133,2.68198 -31.2625,2.75 -28.25011,0.0956 -36.48598,-1.54205 -55.8224,-11.10019 -12.89154,-6.37239 -13.50181,-6.56428 -18.87001,-5.93335 -5.85806,0.6885 -8.32121,-0.28179 -8.29125,-3.26611 0.009,-0.89516 2.03483,-6.29219 4.50188,-11.99341 l 4.48553,-10.36585 -2.98317,-3.39765 c -6.23189,-7.09772 -8.66805,-14.93484 -7.05611,-22.69949 0.84818,-4.08567 2.47383,-6.89686 7.62297,-13.18215 3.59969,-4.39396 7.69478,-9.92184 9.10022,-12.28418 l 2.55533,-4.29517 3.43705,3.43705 c 3.58855,3.58854 13.11455,9.11553 18.61531,10.80061 1.76256,0.53993 8.15465,1.41123 14.20465,1.93621 6.05,0.52499 13.41972,1.21825 16.37715,1.54058 8.45751,0.9218 25.22405,-2.86848 28.44812,-6.43104 1.97405,-2.1813 4.40459,-13.85576 5.68189,-27.29152 0.84201,-8.85709 1.56382,-11.60066 4.86113,-18.47727 2.12976,-4.44164 5.47042,-10.34939 7.42368,-13.12832 2.37652,-3.38109 3.21932,-5.38467 2.54761,-6.05638 -0.63381,-0.63381 -0.66307,-1.69226 -0.0794,-2.87168 5.92716,-11.97676 6.10909,-12.74987 3.64184,-15.47615 -2.20761,-2.43937 -1.17869,-3.5482 4.01528,-4.32708 2.44306,-0.36636 5.50193,-1.49991 6.7975,-2.519 2.92889,-2.30387 8.28113,-3.76092 17.06329,-4.64516 7.64478,-0.76972 9.06686,-1.893 5.77311,-4.56012 -2.99757,-2.42729 -2.05488,-4.56732 2.93516,-6.66318 3.96839,-1.66676 4.81724,-3.35867 3.07032,-6.11971 -0.69829,-1.10365 0.0441,-1.87086 3.16054,-3.26612 l 4.07322,-1.82364 -0.67862,-12.23387 c -0.76126,-13.7237 -0.0402,-17.0028 6.64837,-30.23387 5.43778,-10.75681 20.44171,-27.78947 34.12297,-38.73684 11.0641,-8.85319 17.67619,-11.42694 32.97716,-12.83632 28.52617,-2.62757 28.33891,-2.641 44.88715,3.21898 5.73434,2.03062 10.21231,4.38453 13,6.83363 2.33888,2.05481 5.18048,4.02853 6.31467,4.38605 1.13418,0.35752 6.30918,2.90587 11.5,5.66301 8.09526,4.29985 11.07889,6.68151 20.97383,16.74223 C 617.96538,595.86649 627,607.71342 627,610.6379 c 0,0.48196 2.0531,3.34809 4.56244,6.36919 6.02418,7.25276 13.87536,23.40639 16.52164,33.99291 1.16859,4.675 2.25255,12.1 2.40879,16.5 0.28879,8.13262 1.47151,15.58672 3.33201,21 1.50879,4.38995 3.17512,14.497 3.17512,19.25857 0,9.85592 -9.68202,30.80701 -17.33605,37.51382 -6.22746,5.45676 -24.66082,17.00804 -28.79835,18.04649 -1.37306,0.34462 -5.84203,3.47992 -9.93104,6.96733 -8.76942,7.47923 -13.77755,10.46771 -23.93456,14.28239 -8.6074,3.23269 -13,5.93897 -13,8.00928 0,0.79293 -0.91237,2.22289 -2.02748,3.17768 -1.11512,0.95479 -2.30858,3.49387 -2.65215,5.64239 -0.54519,3.40945 -0.7823,3.6908 -1.86388,2.21166 -1.11431,-1.52391 -1.69593,-1.21163 -5.76987,3.09782 -2.49186,2.63592 -6.78746,7.94257 -9.54578,11.79257 -9.61585,13.42159 -22.69411,23.86062 -38.41267,30.66087 -5.0755,2.19579 -10.12817,4.79589 -11.22817,5.77802 -4.9145,4.38785 -16.73479,10.3755 -20.81939,10.54621 -2.29934,0.0961 -7.33061,0.69383 -11.18061,1.32828 -3.85,0.63445 -9.5875,1.41837 -12.75,1.74204 -4.74155,0.48528 -5.75,0.91664 -5.75,2.45954 0,1.02907 2.5875,4.66621 5.75,8.08253 4.73687,5.11705 5.22141,5.9374 2.75,4.65591 -6.24063,-3.23594 -17.8857,-18.59698 -25.39862,-33.5034 -1.17812,-2.3375 -2.49577,-4.25 -2.92812,-4.25 -0.76214,0 -2.16265,20.34431 -4.22807,61.41846 -0.55089,10.95515 -1.43726,24.90515 -1.96973,31 -1.36384,15.61124 -2.85975,42.94547 -3.91741,71.58154 -0.49769,13.475 -1.43216,26.975 -2.0766,30 -1.02209,4.7977 -3.14323,8.2046 -4.92258,7.9063 -0.30738,-0.052 -6.40843,-1.1676 -13.55789,-2.4803 z M 507,697 c 0,-1.11111 -0.66667,-2 -1.5,-2 -1.52241,0 -2.05126,2.1154 -0.83333,3.33333 C 505.93446,699.60112 507,698.99224 507,697 z m 61,-21.44098 c 0,-1.94129 -1.72041,-2.8818 -3.79789,-2.07621 -1.55809,0.60418 -1.53787,0.78091 0.23902,2.08861 2.46658,1.81529 3.55887,1.81148 3.55887,-0.0124 z M 518.98469,619.75 C 518.99311,618.7875 518.325,618 517.5,618 c -1.58691,0 -1.91999,1.74195 -0.86084,4.50206 0.50987,1.32869 0.81021,1.39581 1.48469,0.33179 0.46504,-0.73362 0.85242,-2.12135 0.86084,-3.08385 z M 554,959.48228 c -7.35213,-1.95174 -11.36185,-3.9772 -22.09548,-11.16124 -5.6052,-3.75157 -11.47676,-7.64996 -13.0479,-8.66309 C 516.41678,938.08465 515.03191,936 516.42659,936 c 0.23463,0 3.90919,2.3625 8.16569,5.25 4.25651,2.8875 9.57704,6.31302 11.82341,7.61227 6.42813,3.71789 19.42203,7.83297 27.16404,8.60266 10.16322,1.01041 14.77859,-0.48169 20.29306,-6.56052 2.94172,-3.24278 5.25245,-4.90441 6.82027,-4.90441 3.05878,0 8.7495,-2.38217 13.80694,-5.77968 11.10144,-7.45777 23.81231,-17.73131 26.0095,-21.02213 1.35805,-2.034 3.07358,-4.59819 3.8123,-5.69819 0.73872,-1.1 3.65754,-5.6 6.48626,-10 2.82872,-4.4 6.67002,-9.20954 8.53622,-10.68786 3.6115,-2.86086 11.90554,-14.67307 14.96451,-21.31214 2.4315,-5.27724 4.89197,-12.60364 8.73174,-26 1.7341,-6.05 5.02188,-16.4 7.30619,-23 l 4.15328,-12 0,-19.13386 0,-19.13386 6.13724,-4.61614 c 3.37548,-2.53888 6.4176,-4.61614 6.76025,-4.61614 0.76824,0 9.17121,-5.84087 16.80497,-11.68107 6.88621,-5.26829 21.42035,-21.08606 29.32726,-31.91739 3.17248,-4.34585 7.51382,-10.20956 9.64742,-13.03048 6.21796,-8.22099 12.77873,-21.2925 14.49078,-28.87106 2.05606,-9.10135 5.37614,-15.56643 9.91554,-19.30819 l 3.65232,-3.01055 -2.75861,-5.6384 c -2.5874,-5.28845 -2.70865,-6.11648 -1.95356,-13.34064 1.78824,-17.10853 0.0649,-24.69063 -7.99188,-35.16098 -2.55674,-3.32268 -4.05982,-6.02955 -3.34018,-6.01525 2.17081,0.0431 12.60716,15.43596 14.68526,21.65968 1.76307,5.28024 1.82262,6.45734 0.64831,12.81433 -1.80307,9.76062 -1.31249,15.39718 1.82936,21.01856 1.45504,2.60334 2.64552,5.27635 2.64552,5.94003 0,0.66367 -1.80711,2.65892 -4.0158,4.43387 -3.95203,3.17594 -8.71981,11.16308 -10.80897,18.10754 -1.78135,5.92128 -4.13487,12.00056 -6.25391,16.15422 -1.83118,3.58941 -13.45046,20.63379 -14.89244,21.84578 -0.32718,0.275 -2.37894,2.975 -4.55947,6 -4.70745,6.53053 -5.73054,7.82269 -10.96941,13.85427 -10.7662,12.39526 -16.0728,17.13979 -27.03819,24.17432 -14.23769,9.13379 -20.03246,13.41526 -19.73825,14.58362 0.12295,0.48829 0.94422,2.90475 1.82505,5.36991 2.62683,7.35176 0.45699,25.78066 -4.99513,42.42449 -1.85856,5.6737 -4.79286,15.44077 -6.52066,21.7046 -2.93496,10.64017 -5.17378,16.63186 -8.61014,23.04308 -0.78247,1.45986 -1.42268,3.13944 -1.42268,3.73239 0,1.09821 -6.03227,11.42279 -10.84168,18.55616 -1.46208,2.16856 -4.53085,5.67653 -6.81951,7.79549 -3.89003,3.60161 -8.4386,9.8909 -16.30915,22.55063 -2.99298,4.81417 -7.27337,8.93853 -14.02966,13.51819 C 600.24167,947.02226 594.91645,950 590.93583,950 c -1.79566,0 -3.76096,1.06862 -5.60106,3.04554 -5.08657,5.46476 -8.10465,6.67871 -17.83477,7.1736 -5.33235,0.2712 -10.83383,-0.0291 -13.5,-0.73686 z m -42.79631,-25.5046 c -2.92591,-1.77936 -4.28811,-3.98486 -2.45369,-3.97271 1.26919,0.008 6.78438,4.78098 6.20369,5.36837 -0.30047,0.30394 -1.98797,-0.32411 -3.75,-1.39566 z m -10.34148,-7.61004 C 494.58468,922.11524 491,918.99766 491,917.7905 c 0,-0.47348 0.96365,-0.34514 2.14144,0.28519 3.45737,1.85033 13.85856,10.16973 13.85856,11.08477 0,1.28147 -0.37524,1.11072 -6.13779,-2.79282 z m -17.49766,-14.15123 c -3.2255,-2.68831 -6.53955,-5.71044 -7.36455,-6.71584 -1.4181,-1.7282 -1.3635,-1.75556 1,-0.50115 1.375,0.72977 3.85,2.5731 5.5,4.09627 1.65,1.52318 4.125,3.66103 5.5,4.75078 1.375,1.08976 2.21405,2.26856 1.86455,2.61957 -0.3495,0.35101 -3.2745,-1.56132 -6.5,-4.24963 z M 470,901.26706 c -1.375,-0.85255 -3.61617,-2.94891 -4.98038,-4.65858 -2.7798,-3.48373 -1.35226,-2.63395 5.23326,3.11524 3.98031,3.47482 3.87719,4.10413 -0.25288,1.54334 z M 457.87244,890.25 c -1.26951,-1.61876 -1.22245,-1.63998 0.62756,-0.28297 1.1,0.80687 2.1875,1.59437 2.41667,1.75 0.22916,0.15563 -0.0532,0.28297 -0.62756,0.28297 -0.57432,0 -1.66182,-0.7875 -2.41667,-1.75 z M 260.46143,730.62666 c -3.82879,-4.05534 -7.63843,-8.21784 -8.46588,-9.25 C 249.43788,718.18622 237,696.59959 237,695.35106 237,695.15798 237.37642,695 237.83648,695 c 0.46006,0 2.07389,2.3625 3.58627,5.25 6.26069,11.95313 16.20166,25.50586 24.90163,33.94889 2.15423,2.09061 3.28266,3.80111 2.50763,3.80111 -0.77503,0 -4.5418,-3.318 -8.37058,-7.37334 z M 233.69381,689.7405 C 232.21221,687.21235 231,684.96188 231,684.73947 231,684.1941 218.56456,665.18272 216.02255,661.84184 214.91015,660.37985 214,658.74379 214,658.20615 c 0,-0.53765 -0.62488,-2.182 -1.38863,-3.65412 -1.08439,-2.09017 -1.34621,-7.68204 -1.195,-25.52334 l 0.19362,-22.84675 3.69501,-4.50927 c 2.03225,-2.48009 3.695,-4.81857 3.695,-5.19661 0,-0.37804 1.125,-2.02433 2.5,-3.65843 1.375,-1.63409 2.5,-3.73402 2.5,-4.66651 0,-2.44233 5.41139,-8.65006 10.73069,-12.30984 2.51751,-1.73209 5.33869,-3.91066 6.26931,-4.84128 3.05248,-3.05248 11.0452,-8.1516 12.18294,-7.77235 0.61261,0.2042 -2.44044,3.18238 -6.78455,6.61817 -10.02917,7.93215 -18.51349,16.34173 -21.53813,21.34838 -1.29814,2.14881 -3.75154,5.79667 -5.45199,8.10636 -5.75456,7.8163 -5.77136,7.89551 -5.97995,28.19944 -0.25294,24.61959 1.15224,30.49608 10.24245,42.8341 2.49855,3.39124 5.63063,8.1909 6.96018,10.6659 1.32954,2.475 3.32656,6.01479 4.4378,7.8662 1.11125,1.85141 1.86259,3.83977 1.66966,4.41857 -0.19293,0.5788 -1.563,-1.01612 -3.0446,-3.54427 z M 756.95312,587.89743 c -3.9679,-4.271 -4.07026,-4.55556 -3.56032,-9.89743 1.23522,-12.93929 1.86262,-16 3.27974,-16 1.04106,0 1.27831,0.86407 0.89237,3.25 -0.28915,1.7875 -0.74593,5.63345 -1.01508,8.54656 -0.26914,2.91311 -0.70387,5.64367 -0.96606,6.0679 -0.45504,0.73627 0.62295,2.65386 4.80169,8.54145 3.18305,4.48474 0.89108,4.14519 -3.43234,-0.50848 z M 756.375,555.875 c 0.34375,-1.71875 0.625,-4.19375 0.625,-5.5 0,-1.30625 0.45,-2.375 1,-2.375 1.09966,0 1.3196,5.2055 0.36971,8.75 -0.93674,3.49544 -2.71297,2.71628 -1.99471,-0.875 z M 758,542.55902 C 758,540.05156 758.45,538 759,538 c 0.55,0 1,1.77344 1,3.94098 0,2.16754 -0.45,4.2191 -1,4.55902 -0.61081,0.3775 -1,-1.15628 -1,-3.94098 z m -478,-2.50407 c 1.375,-1.16152 3.4,-2.62272 4.5,-3.24712 1.68128,-0.95435 1.81305,-0.90998 0.82688,0.27845 -0.64521,0.77755 -2.67021,2.23875 -4.5,3.24712 L 277.5,542.1668 z M 759,534 c 0,-1.82405 0.415,-2.86155 1,-2.5 0.55,0.33992 1,1.46492 1,2.5 0,1.03508 -0.45,2.16008 -1,2.5 -0.585,0.36155 -1,-0.67595 -1,-2.5 z m -465.5,-3.38622 c 1.65,-1.39802 3.5625,-2.55804 4.25,-2.57782 2.26297,-0.0651 1.31181,0.89288 -3,3.02154 l -4.25,2.09814 z m 465.145,-6.889 c -1.04325,-8.68489 -0.78592,-20.92991 0.42412,-20.18206 0.58802,0.36342 0.94385,2.3958 0.79074,4.51642 -0.15311,2.12062 0.0408,4.17483 0.43088,4.56493 1.01679,1.01679 0.87855,15.15327 -0.15444,15.79169 -0.47503,0.29359 -1.14612,-1.81736 -1.4913,-4.69098 z M 303,526.0038 c 0,-1.21231 2.80451,-2.53262 3.62877,-1.70836 0.29839,0.29839 -0.39602,1.04481 -1.54312,1.65872 -1.44619,0.77398 -2.08565,0.7892 -2.08565,0.0496 z m 9,-4.40502 c 0,-0.39079 5.2234,-3.73133 9.75,-6.23546 2.27455,-1.2583 2.82965,-0.79006 1.48469,1.25235 C 321.84779,518.72176 312,523.08971 312,521.59878 z m 445,-22.1578 c 0,-1.45136 0.43284,-2.2915 1,-1.94098 0.55,0.33992 1,1.49148 1,2.55902 0,1.06754 -0.45,1.94098 -1,1.94098 -0.55,0 -1,-1.15156 -1,-2.55902 z M 756,493.5 c 0,-1.375 0.45,-2.5 1,-2.5 0.55,0 1,1.125 1,2.5 0,1.375 -0.45,2.5 -1,2.5 -0.55,0 -1,-1.125 -1,-2.5 z M 754,482 c 0,-0.55 0.45,-1 1,-1 0.55,0 1,0.45 1,1 0,0.55 -0.45,1 -1,1 -0.55,0 -1,-0.45 -1,-1 z m -4.36163,-14.5 c -0.31658,-0.825 -0.13972,-1.5 0.39301,-1.5 0.53274,0 0.96862,0.675 0.96862,1.5 0,0.825 -0.17686,1.5 -0.39301,1.5 -0.21616,0 -0.65203,-0.675 -0.96862,-1.5 z M 535.87244,455.33628 c -1.24448,-1.5086 -1.16266,-1.55194 0.87756,-0.46482 2.32696,1.23991 2.89993,2.12854 1.37244,2.12854 -0.48265,0 -1.49515,-0.74867 -2.25,-1.66372 z M 737.75,452.88491 c -1.5125,-1.12845 -2.75,-2.75893 -2.75,-3.6233 0,-1.32613 0.32684,-1.2758 2.09262,0.32221 1.84868,1.67303 4.45175,5.46884 3.69256,5.3845 -0.15685,-0.0174 -1.52268,-0.95496 -3.03518,-2.08341 z M 709.5,435 c -0.33992,-0.55 -0.16803,-1 0.38197,-1 0.55,0 1.27811,0.45 1.61803,1 0.33992,0.55 0.16803,1 -0.38197,1 -0.55,0 -1.27811,-0.45 -1.61803,-1 z m -38,-4 c -0.35191,-0.5694 0.50929,-1 2,-1 1.49071,0 2.35191,0.4306 2,1 -0.33992,0.55 -1.23992,1 -2,1 -0.76008,0 -1.66008,-0.45 -2,-1 z m 8,-1 c -0.37381,-0.60483 1.00929,-1 3.5,-1 2.49071,0 3.87381,0.39517 3.5,1 -0.33992,0.55 -1.91492,1 -3.5,1 -1.58508,0 -3.16008,-0.45 -3.5,-1 z m 11.5,-0.0936 c 0,-0.49853 0.9,-0.9064 2,-0.9064 1.1,0 2,0.17252 2,0.38337 0,0.21085 -0.9,0.61872 -2,0.90638 -1.1,0.28766 -2,0.11514 -2,-0.38337 z m -339.96673,-1.50634 c -0.0507,-1.67701 5.68225,-9.21036 9.70223,-12.74911 C 363.85528,412.90462 371.46233,408 372.60207,408 c 1.21238,0 0.12969,2.16006 -1.35207,2.69753 -3.87966,1.40723 -11.21429,8.01142 -18.10554,16.30247 -1.14286,1.375 -2.09289,2.00502 -2.11119,1.40004 z M 485.5,417.35283 c -7.49143,-3.82669 -9.62505,-5.34148 -8.98419,-6.37841 0.61259,-0.9912 10.63491,4.22377 13.92275,7.2445 2.67101,2.45403 0.98089,2.15762 -4.93856,-0.86609 z M 374,407.44377 c 0,-0.30593 2.025,-1.45198 4.5,-2.54679 2.475,-1.09482 4.5,-2.40385 4.5,-2.90898 0,-1.63828 6.17219,-7.99962 7.16589,-7.38548 0.57112,0.35298 0.37532,1.26918 -0.48016,2.24676 -0.7945,0.90789 -2.16333,3.07059 -3.04183,4.80598 C 384.14417,406.59322 382.21178,408 377.92857,408 375.76786,408 374,407.7497 374,407.44377 z m 28.66667,-5.11044 C 401.38628,401.05295 402.01599,400 404.0621,400 c 2.71613,0 11.81811,-2.99717 12.51211,-4.12007 0.70383,-1.13882 11.42579,-1.1537 11.42579,-0.0159 0,0.47524 -1.93516,1.12931 -4.30035,1.4535 -2.36519,0.32419 -6.75269,1.73096 -9.75,3.12616 -5.30152,2.46777 -9.92971,3.24287 -11.28298,1.88959 z"
       id="path2997"
       inkscape:connector-curvature="0"
       sodipodi:nodetypes="sssssscssssscscsssscsssssssssssssssssscssssssssssssssssssssssssssssssssssssssscssssssssssssssssssssssssssssssscccssssssscssscssssssssssscsssssssssssssscsssssssssssssssssssscsssssssssssssssscsssssssssssssssssssssssssssssssssssssscssssssssscsssscsscssccssssssssssssssssssscssscssssssscsssssssssssssssscssscccssssccsssssssssssscssssscc" />
    <path
       style="fill:#ada365"
       d="m 391.50098,1045.426 c -15.1109,-2.7744 -15.92739,-3.3699 -14.97968,-10.926 0.99535,-7.9358 6.46637,-40.67103 6.92001,-41.40504 0.83891,-1.35739 2.66119,-21.72933 5.55441,-62.09496 1.63599,-22.825 3.85118,-48.7 4.92265,-57.5 1.07147,-8.8 2.25604,-19.4875 2.63237,-23.75 l 0.68424,-7.75 -2.60499,0 c -1.43275,0 -6.99811,1.20475 -12.36749,2.67721 -9.12279,2.50179 -11.17133,2.68198 -31.2625,2.75 -28.25011,0.0956 -36.48598,-1.54205 -55.8224,-11.10019 -12.89154,-6.37239 -13.50181,-6.56428 -18.87001,-5.93335 -5.85806,0.6885 -8.32121,-0.28179 -8.29125,-3.26611 0.009,-0.89516 2.03483,-6.29219 4.50188,-11.99341 l 4.48553,-10.36585 -2.98317,-3.39765 c -6.23189,-7.09772 -8.66805,-14.93484 -7.05611,-22.69949 0.84818,-4.08567 2.47383,-6.89686 7.62297,-13.18215 3.59969,-4.39396 7.69478,-9.92184 9.10022,-12.28418 l 2.55533,-4.29517 3.43705,3.43705 c 3.58855,3.58854 13.11455,9.11553 18.61531,10.80061 1.76256,0.53993 8.15465,1.41123 14.20465,1.93621 6.05,0.52499 13.41972,1.21825 16.37715,1.54058 8.45751,0.9218 25.22405,-2.86848 28.44812,-6.43104 1.97405,-2.1813 4.40459,-13.85576 5.68189,-27.29152 0.84201,-8.85709 1.56382,-11.60066 4.86113,-18.47727 2.12976,-4.44164 5.47042,-10.34939 7.42368,-13.12832 2.37652,-3.38109 3.21932,-5.38467 2.54761,-6.05638 -0.63381,-0.63381 -0.66307,-1.69226 -0.0794,-2.87168 5.92716,-11.97676 6.10909,-12.74987 3.64184,-15.47615 -2.20761,-2.43937 -1.17869,-3.5482 4.01528,-4.32708 2.44306,-0.36636 5.50193,-1.49991 6.7975,-2.519 2.92889,-2.30387 8.28113,-3.76092 17.06329,-4.64516 7.64478,-0.76972 9.06686,-1.893 5.77311,-4.56012 -2.99757,-2.42729 -2.05488,-4.56732 2.93516,-6.66318 3.96839,-1.66676 4.81724,-3.35867 3.07032,-6.11971 -0.69617,-1.1003 0.008,-1.85465 2.96803,-3.17993 l 3.8807,-1.73744 0.35142,-6.82007 c 0.29085,-5.64441 0.38519,-5.10756 0.54729,3.11434 0.10966,5.56214 0.9206,12.51736 1.84258,15.80327 1.23829,4.41321 1.3623,6.15331 0.5,7.01561 -1.7392,1.7392 -1.37125,4.72718 0.60328,4.89903 0.9625,0.0838 2.2,0.25687 2.75,0.38465 0.55,0.12779 1.49027,0.28425 2.08948,0.34769 1.7991,0.19048 3.41193,4.90841 3.38856,9.9124 -0.0259,5.5388 -2.48975,11.43829 -6.85223,16.40688 -7.64818,8.71079 -10.29604,20.88404 -6.91611,31.79607 0.93697,3.025 2.40441,8.06597 3.26097,11.20216 1.21196,4.43744 2.16421,5.9914 4.29336,7.00625 1.86813,0.89044 3.87505,3.62188 6.32707,8.61117 1.97511,4.01889 4.45011,8.15972 5.5,9.20184 2.90805,2.88654 16.49008,10.8526 30.4089,17.83528 l 12.5,6.2709 19.5,0.1862 c 28.15909,0.26888 50.68976,-3.05068 67.84711,-9.99627 4.75909,-1.92656 9.49654,-3.67112 10.52766,-3.8768 1.81141,-0.36131 1.81365,-0.30642 0.0663,1.62435 -2.54347,2.81051 -10.63452,7.17854 -19.4411,10.49548 -8.61383,3.24434 -13,5.94937 -13,8.01732 0,0.79293 -0.91237,2.22289 -2.02748,3.17768 -1.11512,0.95479 -2.30858,3.49387 -2.65215,5.64239 -0.54519,3.40945 -0.7823,3.6908 -1.86388,2.21166 -1.11431,-1.52391 -1.69593,-1.21163 -5.76987,3.09782 -2.49186,2.63592 -6.78746,7.94257 -9.54578,11.79257 -9.61585,13.42159 -22.69411,23.86062 -38.41267,30.66087 -5.0755,2.19579 -10.12817,4.79589 -11.22817,5.77802 -4.9145,4.38785 -16.73479,10.3755 -20.81939,10.54621 -2.29934,0.0961 -7.33061,0.69383 -11.18061,1.32828 -3.85,0.63445 -9.5875,1.41837 -12.75,1.74204 -4.74155,0.48528 -5.75,0.91664 -5.75,2.45954 0,1.02907 2.5875,4.66621 5.75,8.08253 4.73687,5.11705 5.22141,5.9374 2.75,4.65591 -6.24063,-3.23594 -17.8857,-18.59698 -25.39862,-33.5034 -1.17812,-2.3375 -2.49577,-4.25 -2.92812,-4.25 -0.76214,0 -2.16265,20.34431 -4.22807,61.41846 -0.55089,10.95515 -1.43726,24.90515 -1.96973,31 -1.36384,15.61124 -2.85975,42.94547 -3.91741,71.58154 -0.49769,13.475 -1.43216,26.975 -2.0766,30 -1.02209,4.7977 -3.14323,8.2046 -4.92258,7.9063 -0.30738,-0.052 -6.40843,-1.1676 -13.55789,-2.4803 z M 554,959.48228 c -7.35213,-1.95174 -11.36185,-3.9772 -22.09548,-11.16124 -5.6052,-3.75157 -11.47676,-7.64996 -13.0479,-8.66309 C 516.41678,938.08465 515.03191,936 516.42659,936 c 0.23463,0 3.90919,2.3625 8.16569,5.25 4.25651,2.8875 9.57704,6.31302 11.82341,7.61227 6.42813,3.71789 19.42203,7.83297 27.16404,8.60266 10.16322,1.01041 14.77859,-0.48169 20.29306,-6.56052 2.94172,-3.24278 5.25245,-4.90441 6.82027,-4.90441 3.05878,0 8.7495,-2.38217 13.80694,-5.77968 11.10144,-7.45777 23.81231,-17.73131 26.0095,-21.02213 1.35805,-2.034 3.07358,-4.59819 3.8123,-5.69819 0.73872,-1.1 3.65754,-5.6 6.48626,-10 2.82872,-4.4 6.67002,-9.20954 8.53622,-10.68786 3.6115,-2.86086 11.90554,-14.67307 14.96451,-21.31214 2.4315,-5.27724 4.89197,-12.60364 8.73174,-26 1.7341,-6.05 5.02188,-16.4 7.30619,-23 l 4.15328,-12 0,-19.13386 0,-19.13386 6.13724,-4.61614 c 3.37548,-2.53888 6.4176,-4.61614 6.76025,-4.61614 0.76824,0 9.17121,-5.84087 16.80497,-11.68107 6.88621,-5.26829 21.42035,-21.08606 29.32726,-31.91739 3.17248,-4.34585 7.51382,-10.20956 9.64742,-13.03048 6.21796,-8.22099 12.77873,-21.2925 14.49078,-28.87106 2.05606,-9.10135 5.37614,-15.56643 9.91554,-19.30819 l 3.65232,-3.01055 -2.75861,-5.6384 c -2.5874,-5.28845 -2.70865,-6.11648 -1.95356,-13.34064 1.78824,-17.10853 0.0649,-24.69063 -7.99188,-35.16098 -2.55674,-3.32268 -4.05982,-6.02955 -3.34018,-6.01525 2.17081,0.0431 12.60716,15.43596 14.68526,21.65968 1.76307,5.28024 1.82262,6.45734 0.64831,12.81433 -1.80307,9.76062 -1.31249,15.39718 1.82936,21.01856 1.45504,2.60334 2.64552,5.27635 2.64552,5.94003 0,0.66367 -1.80711,2.65892 -4.0158,4.43387 -3.95203,3.17594 -8.71981,11.16308 -10.80897,18.10754 -1.78135,5.92128 -4.13487,12.00056 -6.25391,16.15422 -1.83118,3.58941 -13.45046,20.63379 -14.89244,21.84578 -0.32718,0.275 -2.37894,2.975 -4.55947,6 -4.70745,6.53053 -5.73054,7.82269 -10.96941,13.85427 -10.7662,12.39526 -16.0728,17.13979 -27.03819,24.17432 -14.23769,9.13379 -20.03246,13.41526 -19.73825,14.58362 0.12295,0.48829 0.94422,2.90475 1.82505,5.36991 2.62683,7.35176 0.45699,25.78066 -4.99513,42.42449 -1.85856,5.6737 -4.79286,15.44077 -6.52066,21.7046 -2.93496,10.64017 -5.17378,16.63186 -8.61014,23.04308 -0.78247,1.45986 -1.42268,3.13944 -1.42268,3.73239 0,1.09821 -6.03227,11.42279 -10.84168,18.55616 -1.46208,2.16856 -4.53085,5.67653 -6.81951,7.79549 -3.89003,3.60161 -8.4386,9.8909 -16.30915,22.55063 -2.99298,4.81417 -7.27337,8.93853 -14.02966,13.51819 C 600.24167,947.02226 594.91645,950 590.93583,950 c -1.79566,0 -3.76096,1.06862 -5.60106,3.04554 -5.08657,5.46476 -8.10465,6.67871 -17.83477,7.1736 -5.33235,0.2712 -10.83383,-0.0291 -13.5,-0.73686 z m -42.79631,-25.5046 c -2.92591,-1.77936 -4.28811,-3.98486 -2.45369,-3.97271 1.26919,0.008 6.78438,4.78098 6.20369,5.36837 -0.30047,0.30394 -1.98797,-0.32411 -3.75,-1.39566 z m -10.34148,-7.61004 C 494.58468,922.11524 491,918.99766 491,917.7905 c 0,-0.47348 0.96365,-0.34514 2.14144,0.28519 3.45737,1.85033 13.85856,10.16973 13.85856,11.08477 0,1.28147 -0.37524,1.11072 -6.13779,-2.79282 z m -17.49766,-14.15123 c -3.2255,-2.68831 -6.53955,-5.71044 -7.36455,-6.71584 -1.4181,-1.7282 -1.3635,-1.75556 1,-0.50115 1.375,0.72977 3.85,2.5731 5.5,4.09627 1.65,1.52318 4.125,3.66103 5.5,4.75078 1.375,1.08976 2.21405,2.26856 1.86455,2.61957 -0.3495,0.35101 -3.2745,-1.56132 -6.5,-4.24963 z M 470,901.26706 c -1.375,-0.85255 -3.61617,-2.94891 -4.98038,-4.65858 -2.7798,-3.48373 -1.35226,-2.63395 5.23326,3.11524 3.98031,3.47482 3.87719,4.10413 -0.25288,1.54334 z M 457.87244,890.25 c -1.26951,-1.61876 -1.22245,-1.63998 0.62756,-0.28297 1.1,0.80687 2.1875,1.59437 2.41667,1.75 0.22916,0.15563 -0.0532,0.28297 -0.62756,0.28297 -0.57432,0 -1.66182,-0.7875 -2.41667,-1.75 z M 601,769.5 c 0.68469,-0.825 1.46989,-1.5 1.74489,-1.5 0.275,0 -0.0602,0.675 -0.74489,1.5 -0.68469,0.825 -1.46989,1.5 -1.74489,1.5 -0.275,0 0.0602,-0.675 0.74489,-1.5 z m 7.08706,-6.44619 c -1.7901,-1.10635 1.55043,-3.47606 9.83147,-6.97427 11.55122,-4.87966 12.03119,-3.22734 0.95968,3.30381 -6.33893,3.73938 -9.13875,4.6917 -10.79115,3.67046 z M 625.60052,744.25 c 0.44797,-0.9625 0.81216,-3.42409 0.80931,-5.47019 -0.007,-4.66469 -2.29854,-7.21177 -12.90983,-14.34647 -9.88423,-6.64584 -28.81109,-25.45908 -27.92801,-27.76035 0.37148,-0.96806 -0.40577,-2.59768 -1.99873,-4.19064 -3.42646,-3.42646 -8.89705,-3.22626 -9.40283,0.3441 -0.24416,1.72355 -0.76247,2.15153 -2,1.65147 -0.91874,-0.37124 -3.27604,-0.90391 -5.23845,-1.18371 -3.25159,-0.46362 -3.87237,-0.12923 -7,3.77053 -7.19721,8.97404 -9.49487,10.79257 -18.93198,14.9841 -9.60874,4.26776 -11.93804,4.64016 -21.25,3.39741 -4.25146,-0.56739 -4.76886,-0.9127 -4.9297,-3.29009 -0.35177,-5.19979 0.34716,-9.6792 1.75302,-11.2349 1.95941,-2.16825 1.78872,-4.59941 -0.59356,-8.454 C 512.67711,687.12345 510,686.98887 510,692.16667 510,693.725 509.63485,695 509.18856,695 c -0.79911,0 -3.45205,-2.41951 -5.97799,-5.45199 -1.96159,-2.35497 -3.57529,-1.93093 -2.67142,0.70199 0.42483,1.2375 0.81481,4.38437 0.86663,6.99304 0.0711,3.57903 0.76911,5.5906 2.84422,8.19658 1.5125,1.89944 2.75,4.10233 2.75,4.89533 0,0.79299 -2.03475,4.56465 -4.52167,8.38146 -5.25,8.05748 -9.03846,10.5825 -19.0904,12.72384 -9.1093,1.94052 -9.84861,1.14512 -8.77467,-9.44025 0.41851,-4.125 0.79987,-9.3035 0.84747,-11.50779 0.0476,-2.20428 0.86342,-5.11691 1.81291,-6.4725 1.91958,-2.74059 2.27312,-7.07295 0.70513,-8.64094 -0.69496,-0.69496 0.78555,-3.53934 4.63419,-8.90322 l 5.65542,-7.88201 -0.61053,-8.04677 c -0.33579,-4.42572 -1.29349,-10.24689 -2.12824,-12.93593 -1.89129,-6.09261 -1.06741,-18.20618 1.3787,-20.27113 8.42646,-7.1134 10.09169,-8.75625 10.09169,-9.95607 0,-1.85587 1.01445,-1.74613 2.48805,0.26914 0.6647,0.90902 1.72681,1.33246 2.36025,0.94098 1.84248,-1.13872 1.33094,-3.73413 -0.8483,-4.30401 -2.25244,-0.58903 -2.22618,-0.53675 -1.37882,-2.74495 0.70189,-1.82909 5.43728,-4.5448 7.92479,-4.5448 0.90491,0 2.92092,0.90833 4.48001,2.0185 2.30854,1.64383 2.96186,3.03599 3.5196,7.5 0.37668,3.01483 0.79964,5.4815 0.93992,5.4815 0.56034,0 11.5145,-11.39206 11.5145,-11.9748 0,-0.34386 -0.5625,-1.1965 -1.25,-1.89476 -1.00313,-1.01883 -0.68417,-1.75964 1.61498,-3.75094 2.67076,-2.31316 2.9875,-2.37048 4.67238,-0.84569 0.99408,0.89963 3.66869,1.88533 5.94358,2.19046 2.95568,0.39644 4.61892,1.284 5.82762,3.10981 0.93029,1.40527 5.17894,6.01675 9.44144,10.24772 4.2625,4.23098 7.75678,8.53092 7.76506,9.55544 0.0162,2.00817 1.99803,8.07756 3.30205,10.11276 0.98389,1.53556 9.23561,1.65048 13.43348,0.1871 4.8799,-1.70114 4.96277,-4.81374 0.23352,-8.77004 C 576.79285,638.33395 575,636.38085 575,635.82684 c 0,-1.82245 -20.25103,-21.03378 -23.68423,-22.46826 -1.84694,-0.7717 -5.53582,-2.74308 -8.19752,-4.38084 C 540.45655,607.33998 537.51199,606 536.57478,606 c -0.93721,0 -3.90686,-0.94764 -6.59921,-2.10586 -4.53659,-1.95158 -5.00803,-2.49398 -6.43538,-7.4039 C 522.69308,593.57631 522,590.54369 522,589.75108 522,587.8455 518.78467,585 516.63142,585 c -0.9411,0 -3.58638,0.9567 -5.87838,2.12599 -3.52263,1.79711 -4.64899,1.95181 -7.28116,1 C 501.75925,587.5067 499.33593,587 498.08673,587 c -1.2492,0 -3.41544,-0.9 -4.81386,-2 -1.5555,-1.22355 -4.05678,-2 -6.44291,-2 -4.09819,0 -8.2649,-2.08511 -9.23892,-4.62334 -0.87816,-2.28845 1.90087,-6.82509 7.78591,-12.71013 C 491.70256,559.34092 498.37132,557 510.06598,557 c 4.08912,0 10.5846,-0.66719 14.43439,-1.48264 10.39146,-2.20108 11.61899,-2.00368 18.34894,2.95062 5.30066,3.90213 6.92933,4.55602 12.86001,5.16312 5.68284,0.58173 7.2232,1.15795 9.44189,3.53202 1.45817,1.56028 3.03317,2.84637 3.5,2.85797 0.46683,0.0116 5.21195,2.19492 10.5447,4.85181 8.22364,4.09719 10.5013,5.79542 15,11.18402 2.91725,3.49433 8.92847,10.19852 13.35826,14.8982 4.42979,4.69968 10.65616,12.81988 13.83637,18.04488 3.18021,5.225 7.78282,12.34072 10.22803,15.8127 5.30321,7.53013 9.05676,17.00437 9.87248,24.91891 0.7735,7.50486 0.0503,8.5626 -4.73083,6.91893 -2.02121,-0.69486 -4.48162,-1.97243 -5.46758,-2.83904 -0.98595,-0.86661 -5.27088,-2.76327 -9.52206,-4.21479 -7.46549,-2.54901 -8.40085,-2.62987 -27.39315,-2.36792 L 574.7137,657.5 l -2.01762,2.70382 c -3.56137,4.77259 -1.53404,5.62904 13.10185,5.5349 9.98717,-0.0642 13.55702,0.28918 16.70207,1.65357 10.43781,4.52811 16.22216,5.96765 24.9953,6.22052 l 8.9953,0.25927 3.71534,3.98304 c 2.04343,2.19067 3.97424,5.25695 4.29068,6.81396 0.31644,1.55701 1.19666,5.08092 1.95606,7.83092 0.75939,2.75 1.93921,8.25658 2.62182,12.23685 1.06673,6.22006 1.02276,7.76559 -0.31293,11 -0.85472,2.06973 -2.04735,5.60409 -2.6503,7.85414 -0.60295,2.25004 -2.21882,5.62504 -3.59083,7.5 -1.37201,1.87495 -2.98654,4.62396 -3.58786,6.1089 -0.6647,1.64149 -3.21196,3.89559 -6.49779,5.75 -6.21727,3.50881 -8.02206,3.85214 -6.83427,1.30011 z M 528,688.5 c 0,-1.04472 -1.05165,-1.5 -3.46482,-1.5 C 520.86063,687 519,685.00523 519,681.06574 c 0,-2.25532 -1.57238,-2.82165 -2.26486,-0.81574 -0.67155,1.9453 2.31663,7.45847 4.65757,8.59318 C 524.60308,690.39933 528,690.2229 528,688.5 z m 41.87446,-11.26542 c 0.94998,-1.77507 -0.49675,-10.37844 -2.18348,-12.98458 -1.80913,-2.79526 -10.4779,0.25694 -9.3176,3.28064 0.71962,1.87528 -1.97869,3.80584 -4.42516,3.16607 -2.55976,-0.66939 -2.11164,1.26559 0.6113,2.63954 1.06726,0.53853 2.61548,1.36104 3.44048,1.82781 1.58122,0.89462 1.75291,0.96311 6.5,2.59309 4.2271,1.45143 4.32299,1.44211 5.37446,-0.52257 z m -41.27368,-4.43333 c 1.49616,0.50124 4.39922,-0.5487 4.39922,-1.59105 0,-0.53738 -1.2375,-1.22208 -2.75,-1.52157 -3.5867,-0.71021 -5.70754,1.29571 -4.70481,4.44986 0.71362,2.24474 0.78549,2.26261 1.45356,0.36151 0.38654,-1.1 1.10746,-1.86444 1.60203,-1.69875 z M 511,664.46482 C 511,661.54144 507.85179,658 505.25302,658 c -2.90441,0 -8.80373,-3.37731 -10.17958,-5.82774 -0.86919,-1.54803 -0.98924,-1.5417 -1.61607,0.0853 -0.8688,2.25504 0.17881,7.86266 1.91162,10.23241 1.25911,1.72195 6.4784,3.09348 12.88101,3.38489 1.86014,0.0847 2.75,-0.37159 2.75,-1.41001 z m -3.16309,-41.85648 c 0.43131,-2.23963 -1.94391,-4.03794 -3.0452,-2.30555 -0.4186,0.65846 -0.76798,2.01771 -0.7764,3.02053 -0.0204,2.42947 3.337,1.80133 3.8216,-0.71498 z M 641,743.5 c 0.68469,-0.825 1.46989,-1.5 1.74489,-1.5 0.275,0 -0.0602,0.675 -0.74489,1.5 -0.68469,0.825 -1.46989,1.5 -1.74489,1.5 -0.275,0 0.0602,-0.675 0.74489,-1.5 z M 260.46143,730.62666 c -3.82879,-4.05534 -7.63843,-8.21784 -8.46588,-9.25 C 249.43788,718.18622 237,696.59959 237,695.35106 237,695.15798 237.37642,695 237.83648,695 c 0.46006,0 2.07389,2.3625 3.58627,5.25 6.26069,11.95313 16.20166,25.50586 24.90163,33.94889 2.15423,2.09061 3.28266,3.80111 2.50763,3.80111 -0.77503,0 -4.5418,-3.318 -8.37058,-7.37334 z m 182.99302,-17.31507 c -1.319,-1.31899 -1.56017,-2.77114 -1.1023,-6.63714 0.69605,-5.87702 2.35076,-7.96926 7.52998,-9.52099 C 454.52138,695.76351 468,695.6136 468,696.95196 c 0,0.52358 -1.93838,2.2856 -4.30752,3.91561 -2.36913,1.63001 -4.95663,3.75138 -5.75,4.71416 C 456.00111,707.93768 447.03222,715 445.98163,715 c -0.46132,0 -1.59856,-0.75978 -2.52718,-1.68841 z M 233.69381,689.7405 C 232.21221,687.21235 231,684.96188 231,684.73947 231,684.1941 218.56456,665.18272 216.02255,661.84184 214.91015,660.37985 214,658.74379 214,658.20615 c 0,-0.53765 -0.62488,-2.182 -1.38863,-3.65412 -1.08439,-2.09017 -1.34621,-7.68204 -1.195,-25.52334 l 0.19362,-22.84675 3.69501,-4.50927 c 2.03225,-2.48009 3.695,-4.81857 3.695,-5.19661 0,-0.37804 1.125,-2.02433 2.5,-3.65843 1.375,-1.63409 2.5,-3.73402 2.5,-4.66651 0,-2.44233 5.41139,-8.65006 10.73069,-12.30984 2.51751,-1.73209 5.33869,-3.91066 6.26931,-4.84128 3.05248,-3.05248 11.0452,-8.1516 12.18294,-7.77235 0.61261,0.2042 -2.44044,3.18238 -6.78455,6.61817 -10.02917,7.93215 -18.51349,16.34173 -21.53813,21.34838 -1.29814,2.14881 -3.75154,5.79667 -5.45199,8.10636 -5.75456,7.8163 -5.77136,7.89551 -5.97995,28.19944 -0.25294,24.61959 1.15224,30.49608 10.24245,42.8341 2.49855,3.39124 5.63063,8.1909 6.96018,10.6659 1.32954,2.475 3.32656,6.01479 4.4378,7.8662 1.11125,1.85141 1.86259,3.83977 1.66966,4.41857 -0.19293,0.5788 -1.563,-1.01612 -3.0446,-3.54427 z m 420.42219,2.09129 c -0.0638,-0.91752 -0.37498,-2.49252 -0.69151,-3.5 -0.54548,-1.73622 -0.51588,-1.73885 0.56728,-0.0504 0.62853,0.97978 0.9397,2.55478 0.6915,3.5 -0.40654,1.54825 -0.46276,1.55325 -0.56727,0.0504 z M 437.30987,622.5 c -0.006,-3.3 0.17648,-4.77056 0.40466,-3.26791 0.22817,1.50265 0.23276,4.20265 0.0102,6 -0.22256,1.79735 -0.40925,0.56791 -0.41486,-2.73209 z m 319.64325,-34.60257 c -3.9679,-4.271 -4.07026,-4.55556 -3.56032,-9.89743 1.23522,-12.93929 1.86262,-16 3.27974,-16 1.04106,0 1.27831,0.86407 0.89237,3.25 -0.28915,1.7875 -0.74593,5.63345 -1.01508,8.54656 -0.26914,2.91311 -0.70387,5.64367 -0.96606,6.0679 -0.45504,0.73627 0.62295,2.65386 4.80169,8.54145 3.18305,4.48474 0.89108,4.14519 -3.43234,-0.50848 z M 756.375,555.875 c 0.34375,-1.71875 0.625,-4.19375 0.625,-5.5 0,-1.30625 0.45,-2.375 1,-2.375 1.09966,0 1.3196,5.2055 0.36971,8.75 -0.93674,3.49544 -2.71297,2.71628 -1.99471,-0.875 z M 758,542.55902 C 758,540.05156 758.45,538 759,538 c 0.55,0 1,1.77344 1,3.94098 0,2.16754 -0.45,4.2191 -1,4.55902 -0.61081,0.3775 -1,-1.15628 -1,-3.94098 z m -478,-2.50407 c 1.375,-1.16152 3.4,-2.62272 4.5,-3.24712 1.68128,-0.95435 1.81305,-0.90998 0.82688,0.27845 -0.64521,0.77755 -2.67021,2.23875 -4.5,3.24712 L 277.5,542.1668 z M 759,534 c 0,-1.82405 0.415,-2.86155 1,-2.5 0.55,0.33992 1,1.46492 1,2.5 0,1.03508 -0.45,2.16008 -1,2.5 -0.585,0.36155 -1,-0.67595 -1,-2.5 z m -465.5,-3.38622 c 1.65,-1.39802 3.5625,-2.55804 4.25,-2.57782 2.26297,-0.0651 1.31181,0.89288 -3,3.02154 l -4.25,2.09814 z m 465.145,-6.889 c -1.04325,-8.68489 -0.78592,-20.92991 0.42412,-20.18206 0.58802,0.36342 0.94385,2.3958 0.79074,4.51642 -0.15311,2.12062 0.0408,4.17483 0.43088,4.56493 1.01679,1.01679 0.87855,15.15327 -0.15444,15.79169 -0.47503,0.29359 -1.14612,-1.81736 -1.4913,-4.69098 z M 303,526.0038 c 0,-1.21231 2.80451,-2.53262 3.62877,-1.70836 0.29839,0.29839 -0.39602,1.04481 -1.54312,1.65872 -1.44619,0.77398 -2.08565,0.7892 -2.08565,0.0496 z m 9,-4.40502 c 0,-0.39079 5.2234,-3.73133 9.75,-6.23546 2.27455,-1.2583 2.82965,-0.79006 1.48469,1.25235 C 321.84779,518.72176 312,523.08971 312,521.59878 z m 445,-22.1578 c 0,-1.45136 0.43284,-2.2915 1,-1.94098 0.55,0.33992 1,1.49148 1,2.55902 0,1.06754 -0.45,1.94098 -1,1.94098 -0.55,0 -1,-1.15156 -1,-2.55902 z M 756,493.5 c 0,-1.375 0.45,-2.5 1,-2.5 0.55,0 1,1.125 1,2.5 0,1.375 -0.45,2.5 -1,2.5 -0.55,0 -1,-1.125 -1,-2.5 z M 754,482 c 0,-0.55 0.45,-1 1,-1 0.55,0 1,0.45 1,1 0,0.55 -0.45,1 -1,1 -0.55,0 -1,-0.45 -1,-1 z m -4.36163,-14.5 c -0.31658,-0.825 -0.13972,-1.5 0.39301,-1.5 0.53274,0 0.96862,0.675 0.96862,1.5 0,0.825 -0.17686,1.5 -0.39301,1.5 -0.21616,0 -0.65203,-0.675 -0.96862,-1.5 z M 535.87244,455.33628 c -1.24448,-1.5086 -1.16266,-1.55194 0.87756,-0.46482 2.32696,1.23991 2.89993,2.12854 1.37244,2.12854 -0.48265,0 -1.49515,-0.74867 -2.25,-1.66372 z M 737.75,452.88491 c -1.5125,-1.12845 -2.75,-2.75893 -2.75,-3.6233 0,-1.32613 0.32684,-1.2758 2.09262,0.32221 1.84868,1.67303 4.45175,5.46884 3.69256,5.3845 -0.15685,-0.0174 -1.52268,-0.95496 -3.03518,-2.08341 z M 709.5,435 c -0.33992,-0.55 -0.16803,-1 0.38197,-1 0.55,0 1.27811,0.45 1.61803,1 0.33992,0.55 0.16803,1 -0.38197,1 -0.55,0 -1.27811,-0.45 -1.61803,-1 z m -38,-4 c -0.35191,-0.5694 0.50929,-1 2,-1 1.49071,0 2.35191,0.4306 2,1 -0.33992,0.55 -1.23992,1 -2,1 -0.76008,0 -1.66008,-0.45 -2,-1 z m 8,-1 c -0.37381,-0.60483 1.00929,-1 3.5,-1 2.49071,0 3.87381,0.39517 3.5,1 -0.33992,0.55 -1.91492,1 -3.5,1 -1.58508,0 -3.16008,-0.45 -3.5,-1 z m 11.5,-0.0936 c 0,-0.49853 0.9,-0.9064 2,-0.9064 1.1,0 2,0.17252 2,0.38337 0,0.21085 -0.9,0.61872 -2,0.90638 -1.1,0.28766 -2,0.11514 -2,-0.38337 z m -339.96673,-1.50634 c -0.0507,-1.67701 5.68225,-9.21036 9.70223,-12.74911 C 363.85528,412.90462 371.46233,408 372.60207,408 c 1.21238,0 0.12969,2.16006 -1.35207,2.69753 -3.87966,1.40723 -11.21429,8.01142 -18.10554,16.30247 -1.14286,1.375 -2.09289,2.00502 -2.11119,1.40004 z M 485.5,417.35283 c -7.49143,-3.82669 -9.62505,-5.34148 -8.98419,-6.37841 0.61259,-0.9912 10.63491,4.22377 13.92275,7.2445 2.67101,2.45403 0.98089,2.15762 -4.93856,-0.86609 z M 374,407.44377 c 0,-0.30593 2.025,-1.45198 4.5,-2.54679 2.475,-1.09482 4.5,-2.40385 4.5,-2.90898 0,-1.63828 6.17219,-7.99962 7.16589,-7.38548 0.57112,0.35298 0.37532,1.26918 -0.48016,2.24676 -0.7945,0.90789 -2.16333,3.07059 -3.04183,4.80598 C 384.14417,406.59322 382.21178,408 377.92857,408 375.76786,408 374,407.7497 374,407.44377 z m 28.66667,-5.11044 C 401.38628,401.05295 402.01599,400 404.0621,400 c 2.71613,0 11.81811,-2.99717 12.51211,-4.12007 0.70383,-1.13882 11.42579,-1.1537 11.42579,-0.0159 0,0.47524 -1.93516,1.12931 -4.30035,1.4535 -2.36519,0.32419 -6.75269,1.73096 -9.75,3.12616 -5.30152,2.46777 -9.92971,3.24287 -11.28298,1.88959 z"
       id="path2995"
       inkscape:connector-curvature="0"
       sodipodi:nodetypes="cssssscssssscscsssscsssssssssssssssssscssssccssssssssscssssssssssssssssssssssssscccssssssssssssssssscccssssssscssscssssssssssscsssssssssssssscsssssssssssssssssssscsssssssssssscsssssssssssssssssssssssssscssssssssssssssssssscsssssssssssssssssssssssssssssssssscsssscsssssssssssssssssssssssssssscsssssscssscssssssssssssssssssssssssssssscssssssssssssssssssssscsscsssssssssssssssssssssscssssssssscsssscsscssccssssssssssssssssssscssscssssssscsssssssssssssssscssscccssssccsssssssssssscssssscc" />
    <path
       style="fill:#f0af02"
       d="m 391.14669,1044.5461 c -7.22794,-1.3237 -12.73902,-2.8399 -13.28296,-3.6542 -0.51131,-0.7656 -0.66205,-3.8669 -0.33498,-6.8919 0.75923,-7.022 6.36815,-41.02416 6.91256,-41.90504 0.83891,-1.35739 2.66119,-21.72933 5.55441,-62.09496 1.63599,-22.825 3.86069,-48.7 4.94378,-57.5 1.08309,-8.8 2.10228,-19.375 2.26488,-23.5 0.28362,-7.19562 0.20095,-7.51341 -2.03708,-7.83039 -1.28299,-0.18171 -7.13299,0.93993 -13,2.49253 -10.07907,2.66725 -11.82532,2.82333 -31.6673,2.83039 -27.74344,0.01 -36.97084,-1.85613 -55.40781,-11.2048 -12.10587,-6.13841 -12.8421,-6.37347 -19.06288,-6.08637 -5.11533,0.23609 -6.53449,-0.0156 -6.77528,-1.20136 -0.24977,-1.23008 1.0281,-1.48862 7.10145,-1.43678 6.85147,0.0585 7.92039,0.37258 14.27527,4.19477 16.09957,9.68319 26.44313,12.19008 53.40158,12.94255 21.13415,0.5899 32.13261,-0.37348 42.95847,-3.76284 4.12561,-1.29164 7.76952,-1.81851 10,-1.44588 2.4962,0.41702 5.29009,-0.13956 9.67848,-1.92806 9.37482,-3.82074 13.61512,-4.24824 16.06412,-1.61955 1.10465,1.18571 2.28256,4.15555 2.61756,6.59963 0.33499,2.44409 1.77333,6.74133 3.1963,9.54941 1.42296,2.80809 2.36449,5.32833 2.09229,5.60054 -0.27221,0.2722 -1.33366,-1.23504 -2.35879,-3.34944 -2.75831,-5.6892 -5.68199,-10.33085 -6.51171,-10.33803 -1.42082,-0.0123 -1.83117,5.54694 -4.82827,65.41214 -0.54846,10.95515 -1.43285,24.90515 -1.96532,31 -1.3104,14.99954 -2.79957,41.9476 -3.98328,72.08154 -0.9766,24.8617 -2.01646,33.2597 -4.29786,34.7101 -1.50322,0.9557 -0.87748,1.0226 -15.54763,-1.664 z m 166.58428,-86.20204 c 0.67703,-0.27392 2.02703,-0.29059 3,-0.0371 0.97297,0.25354 0.41903,0.47766 -1.23097,0.49804 -1.65,0.0204 -2.44606,-0.18706 -1.76903,-0.46099 z m -7.17333,-1.2508 c -0.30822,-0.49871 0.34022,-0.67122 1.44098,-0.38337 2.33499,0.61061 2.63015,1.29011 0.5604,1.29011 -0.79254,0 -1.69316,-0.40803 -2.00138,-0.90674 z M 591.5,947.9319 c -1.62866,-0.6444 -1.39657,-0.80438 1.25,-0.86161 3.37975,-0.0731 4.14515,0.38016 2,1.18434 -0.6875,0.25773 -2.15,0.1125 -3.25,-0.32273 z M 275.44449,811.55136 c 2.04496,-4.98615 3.04923,-5.95318 2.13038,-2.05136 -0.38856,1.65 -1.39123,3.675 -2.22815,4.5 -1.3072,1.28859 -1.29342,0.94347 0.0978,-2.44864 z M 273.87244,799.25 c -1.24387,-1.58606 -1.2085,-1.62143 0.37756,-0.37756 0.9625,0.75485 1.75,1.54235 1.75,1.75 0,0.82304 -0.82119,0.29331 -2.12756,-1.37244 z m 412.8244,-10.49873 c -0.32733,-5.05246 -0.40562,-9.37582 -0.17397,-9.60747 1.03835,-1.03835 2.47713,5.56116 2.47713,11.36228 0,9.80912 -1.63465,8.56366 -2.30316,-1.75481 z M 508,792.0999 c -16.81395,-0.72681 -21.2913,-2.00801 -31.27617,-8.94972 -4.30254,-2.99122 -15.18505,-9.94857 -21.99524,-14.06186 -4.58006,-2.76632 -7.30737,-6.26911 -12.52655,-16.08832 -5.03956,-9.48128 -11.36849,-30.55374 -11.4569,-38.14624 -0.086,-7.38646 4.93027,-18.16976 12.09212,-25.99397 3.90109,-4.26187 5.16274,-6.40017 5.16274,-8.75 L 448,677 l -8.54966,0 c -8.87807,0 -14.84356,-1.82756 -13.89852,-4.25789 0.77206,-1.98549 14.44818,-8.70656 14.44818,-7.1005 0,0.74712 0.7875,1.42693 1.75,1.5107 0.9625,0.0838 2.2,0.25687 2.75,0.38465 0.55,0.12779 1.49027,0.28425 2.08948,0.34769 1.7991,0.19048 3.41193,4.90841 3.38856,9.9124 -0.0259,5.5388 -2.48975,11.43829 -6.85223,16.40688 -7.64818,8.71079 -10.29604,20.88404 -6.91611,31.79607 0.93697,3.025 2.40441,8.06597 3.26097,11.20216 1.21196,4.43744 2.16421,5.9914 4.29336,7.00625 1.86813,0.89044 3.87505,3.62188 6.32707,8.61117 1.97511,4.01889 4.45011,8.15972 5.5,9.20184 2.90805,2.88654 16.49008,10.8526 30.4089,17.83528 l 12.5,6.2709 19.5,0.1862 c 28.642,0.2735 50.90232,-3.0758 68.66682,-10.33163 7.41859,-3.0301 9.11402,-3.44118 8.35676,-2.02623 -1.41884,2.65112 -15.64456,8.96088 -32.91764,14.60047 -9.27447,3.02807 -31.84034,4.50595 -54.10594,3.54349 z m -240.4349,-6.11403 c -0.32527,-1.36723 -0.21106,-3.83587 0.2538,-5.48587 l 0.8452,-3 0.71436,3.75586 c 0.85413,4.49069 -0.82703,8.87588 -1.81336,4.73001 z M 608.52778,761.09186 C 610.38721,759.29285 624.10227,753 626.16373,753 c 2.36308,0 -0.93764,2.31743 -8.54577,5.99998 -9.17728,4.44206 -12.2502,5.14922 -9.09018,2.09188 z M 282.05551,758.5 c -0.006,-0.55 0.86895,-2.125 1.94449,-3.5 1.07554,-1.375 1.96553,-1.98735 1.97776,-1.36078 0.0122,0.62656 -0.86279,2.20156 -1.94449,3.5 -1.0817,1.29843 -1.9717,1.91078 -1.97776,1.36078 z M 709,757 c 1.375,-1.07554 2.89819,-1.96553 3.38486,-1.97776 0.48667,-0.0122 -0.25931,0.87776 -1.65773,1.97776 -1.39842,1.1 -2.92161,1.98999 -3.38486,1.97776 C 706.87902,758.96553 707.625,758.07554 709,757 z m -83.39948,-12.75 c 0.44797,-0.9625 0.81216,-3.42409 0.80931,-5.47019 -0.007,-4.66469 -2.29854,-7.21177 -12.90983,-14.34647 -9.88423,-6.64584 -28.81109,-25.45908 -27.92801,-27.76035 0.37148,-0.96806 -0.40577,-2.59768 -1.99873,-4.19064 -3.42646,-3.42646 -8.89705,-3.22626 -9.40283,0.3441 -0.24416,1.72355 -0.76247,2.15153 -2,1.65147 -0.91874,-0.37124 -3.27604,-0.90391 -5.23845,-1.18371 -3.25159,-0.46362 -3.87237,-0.12923 -7,3.77053 -7.19721,8.97404 -9.49487,10.79257 -18.93198,14.9841 -9.60874,4.26776 -11.93804,4.64016 -21.25,3.39741 -4.25146,-0.56739 -4.76886,-0.9127 -4.9297,-3.29009 -0.35177,-5.19979 0.34716,-9.6792 1.75302,-11.2349 1.95941,-2.16825 1.78872,-4.59941 -0.59356,-8.454 C 512.67711,687.12345 510,686.98887 510,692.16667 510,693.725 509.63485,695 509.18856,695 c -0.79911,0 -3.45205,-2.41951 -5.97799,-5.45199 -1.96159,-2.35497 -3.57529,-1.93093 -2.67142,0.70199 0.42483,1.2375 0.81481,4.38437 0.86663,6.99304 0.0711,3.57903 0.76911,5.5906 2.84422,8.19658 1.5125,1.89944 2.75,4.10233 2.75,4.89533 0,0.79299 -2.03475,4.56465 -4.52167,8.38146 -5.25,8.05748 -9.03846,10.5825 -19.0904,12.72384 -9.1093,1.94052 -9.84861,1.14512 -8.77467,-9.44025 0.41851,-4.125 0.79987,-9.3035 0.84747,-11.50779 0.0476,-2.20428 0.86342,-5.11691 1.81291,-6.4725 1.91958,-2.74059 2.27312,-7.07295 0.70513,-8.64094 -0.69496,-0.69496 0.78555,-3.53934 4.63419,-8.90322 l 5.65542,-7.88201 -0.61053,-8.04677 c -0.33579,-4.42572 -1.29349,-10.24689 -2.12824,-12.93593 -1.89129,-6.09261 -1.06741,-18.20618 1.3787,-20.27113 8.42646,-7.1134 10.09169,-8.75625 10.09169,-9.95607 0,-1.85587 1.01445,-1.74613 2.48805,0.26914 0.6647,0.90902 1.72681,1.33246 2.36025,0.94098 1.84248,-1.13872 1.33094,-3.73413 -0.8483,-4.30401 -2.25244,-0.58903 -2.22618,-0.53675 -1.37882,-2.74495 0.70189,-1.82909 5.43728,-4.5448 7.92479,-4.5448 0.90491,0 2.92092,0.90833 4.48001,2.0185 2.30854,1.64383 2.96186,3.03599 3.5196,7.5 0.37668,3.01483 0.79964,5.4815 0.93992,5.4815 0.56034,0 11.5145,-11.39206 11.5145,-11.9748 0,-0.34386 -0.5625,-1.1965 -1.25,-1.89476 -1.00313,-1.01883 -0.68417,-1.75964 1.61498,-3.75094 2.67076,-2.31316 2.9875,-2.37048 4.67238,-0.84569 0.99408,0.89963 3.66869,1.88533 5.94358,2.19046 2.95568,0.39644 4.61892,1.284 5.82762,3.10981 0.93029,1.40527 5.17894,6.01675 9.44144,10.24772 4.2625,4.23098 7.75678,8.53092 7.76506,9.55544 0.0162,2.00817 1.99803,8.07756 3.30205,10.11276 0.98389,1.53556 9.23561,1.65048 13.43348,0.1871 4.8799,-1.70114 4.96277,-4.81374 0.23352,-8.77004 C 576.79285,638.33395 575,636.38085 575,635.82684 c 0,-1.82245 -20.25103,-21.03378 -23.68423,-22.46826 -1.84694,-0.7717 -5.53582,-2.74308 -8.19752,-4.38084 C 540.45655,607.33998 537.51199,606 536.57478,606 c -0.93721,0 -3.90686,-0.94764 -6.59921,-2.10586 -4.53659,-1.95158 -5.00803,-2.49398 -6.43538,-7.4039 C 522.69308,593.57631 522,590.54369 522,589.75108 522,587.8455 518.78467,585 516.63142,585 c -0.9411,0 -3.58638,0.9567 -5.87838,2.12599 -3.52263,1.79711 -4.64899,1.95181 -7.28116,1 C 501.75925,587.5067 499.33593,587 498.08673,587 c -1.2492,0 -3.41544,-0.9 -4.81386,-2 -1.5555,-1.22355 -4.05678,-2 -6.44291,-2 -4.09819,0 -8.2649,-2.08511 -9.23892,-4.62334 -0.87816,-2.28845 1.90087,-6.82509 7.78591,-12.71013 C 491.70256,559.34092 498.37132,557 510.06598,557 c 4.08912,0 10.5846,-0.66719 14.43439,-1.48264 10.39146,-2.20108 11.61899,-2.00368 18.34894,2.95062 5.30066,3.90213 6.92933,4.55602 12.86001,5.16312 5.68284,0.58173 7.2232,1.15795 9.44189,3.53202 1.45817,1.56028 3.03317,2.84637 3.5,2.85797 0.46683,0.0116 5.21195,2.19492 10.5447,4.85181 8.22364,4.09719 10.5013,5.79542 15,11.18402 2.91725,3.49433 8.92847,10.19852 13.35826,14.8982 4.42979,4.69968 10.65616,12.81988 13.83637,18.04488 3.18021,5.225 7.78282,12.34072 10.22803,15.8127 5.30321,7.53013 9.05676,17.00437 9.87248,24.91891 0.7735,7.50486 0.0503,8.5626 -4.73083,6.91893 -2.02121,-0.69486 -4.48162,-1.97243 -5.46758,-2.83904 -0.98595,-0.86661 -5.27088,-2.76327 -9.52206,-4.21479 -7.46549,-2.54901 -8.40085,-2.62987 -27.39315,-2.36792 L 574.7137,657.5 l -2.01762,2.70382 c -3.56137,4.77259 -1.53404,5.62904 13.10185,5.5349 9.98717,-0.0642 13.55702,0.28918 16.70207,1.65357 10.43781,4.52811 16.22216,5.96765 24.9953,6.22052 l 8.9953,0.25927 3.71534,3.98304 c 2.04343,2.19067 3.97424,5.25695 4.29068,6.81396 0.31644,1.55701 1.19666,5.08092 1.95606,7.83092 0.75939,2.75 1.93921,8.25658 2.62182,12.23685 1.06673,6.22006 1.02276,7.76559 -0.31293,11 -0.85472,2.06973 -2.04735,5.60409 -2.6503,7.85414 -0.60295,2.25004 -2.21882,5.62504 -3.59083,7.5 -1.37201,1.87495 -2.98654,4.62396 -3.58786,6.1089 -0.6647,1.64149 -3.21196,3.89559 -6.49779,5.75 -6.21727,3.50881 -8.02206,3.85214 -6.83427,1.30011 z M 528,688.5 c 0,-1.04472 -1.05165,-1.5 -3.46482,-1.5 C 520.86063,687 519,685.00523 519,681.06574 c 0,-2.25532 -1.57238,-2.82165 -2.26486,-0.81574 -0.67155,1.9453 2.31663,7.45847 4.65757,8.59318 C 524.60308,690.39933 528,690.2229 528,688.5 z m 41.87446,-11.26542 c 0.94998,-1.77507 -0.49675,-10.37844 -2.18348,-12.98458 -1.80913,-2.79526 -10.4779,0.25694 -9.3176,3.28064 0.71962,1.87528 -1.97869,3.80584 -4.42516,3.16607 -2.55976,-0.66939 -2.11164,1.26559 0.6113,2.63954 1.06726,0.53853 2.61548,1.36104 3.44048,1.82781 1.58122,0.89462 1.75291,0.96311 6.5,2.59309 4.2271,1.45143 4.32299,1.44211 5.37446,-0.52257 z M 529,674.33333 C 529,673.6 529.65917,673 530.46482,673 c 2.27214,0 3.87914,-3.65403 1.93508,-4.40004 -2.40127,-0.92145 -3.06458,-0.68632 -1.3999,0.49624 1.16481,0.82745 0.91105,0.93792 -1.13558,0.49435 -3.11791,-0.67576 -5.31767,1.40601 -4.43255,4.1948 0.67821,2.13686 3.56813,2.58068 3.56813,0.54798 z m -18,-9.86851 C 511,661.45822 507.85308,658 505.11712,658 502.28535,658 495,653.61093 495,651.90493 c 0,-0.56263 -0.43516,-0.75402 -0.96701,-0.42532 -0.53186,0.32871 -0.90247,3.05088 -0.82358,6.04927 0.0789,2.99838 0.36014,5.23491 0.625,4.97004 0.26487,-0.26486 1.12442,0.052 1.91013,0.70403 1.42412,1.18192 7.28581,2.43431 12.50546,2.67188 1.86014,0.0847 2.75,-0.37159 2.75,-1.41001 z m -3.16309,-41.85648 c 0.43131,-2.23963 -1.94391,-4.03794 -3.0452,-2.30555 -0.4186,0.65846 -0.76798,2.01771 -0.7764,3.02053 -0.0204,2.42947 3.337,1.80133 3.8216,-0.71498 z m -64.38246,90.70325 c -1.319,-1.31899 -1.56017,-2.77114 -1.1023,-6.63714 0.69605,-5.87702 2.35076,-7.96926 7.52998,-9.52099 C 454.52138,695.76351 468,695.6136 468,696.95196 c 0,0.52358 -1.93838,2.2856 -4.30752,3.91561 -2.36913,1.63001 -4.95663,3.75138 -5.75,4.71416 C 456.00111,707.93768 447.03222,715 445.98163,715 c -0.46132,0 -1.59856,-0.75978 -2.52718,-1.68841 z m 329.04471,-45.30994 c 1.44942,-2.86028 2.86144,-4.97438 3.13783,-4.69799 0.6472,0.6472 -3.26764,8.35003 -4.69077,9.22958 -0.5953,0.36791 0.10353,-1.6713 1.55294,-4.53159 z M 440.8245,660.32582 c 0.42673,-2.09296 0.67819,-2.34442 0.96961,-0.9696 0.2164,1.02092 -0.0429,2.29254 -0.57615,2.82582 -0.62614,0.62614 -0.76551,-0.0314 -0.39346,-1.85622 z m 340.32054,-2.78178 c 1.29523,-1.35077 2.51447,-1.99725 2.70942,-1.43662 0.19495,0.56063 -0.48005,1.6515 -1.5,2.42415 -3.00798,2.27866 -3.75579,1.66805 -1.20942,-0.98753 z M 777,641 c 0,-1.86667 0.26667,-2.13333 1.2,-1.2 0.93333,0.93333 0.93333,1.46667 0,2.4 -0.93333,0.93333 -1.2,0.66667 -1.2,-1.2 z m 2,-18.05902 c 0,-1.13246 0.43035,-1.79305 0.95633,-1.46797 0.52598,0.32507 0.70283,1.25163 0.39301,2.05902 C 779.55611,625.59914 779,625.35555 779,622.94098 z M 379,406.68806 c 0,-0.17157 1.38724,-1.33758 3.08276,-2.59113 l 3.08276,-2.27918 -1.69777,2.59113 C 382.53398,405.83399 381.14673,407 380.38499,407 379.62325,407 379,406.85963 379,406.68806 z"
       id="path2993"
       inkscape:connector-curvature="0" />
    <path
       style="fill:#ad6908"
       d="m 391.14669,1044.5461 c -7.22794,-1.3237 -12.73902,-2.8399 -13.28296,-3.6542 -0.51131,-0.7656 -0.66205,-3.8669 -0.33498,-6.8919 0.75923,-7.022 6.36815,-41.02416 6.91256,-41.90504 0.83891,-1.35739 2.66119,-21.72933 5.55441,-62.09496 1.63599,-22.825 3.86069,-48.7 4.94378,-57.5 1.08309,-8.8 2.10228,-19.375 2.26488,-23.5 0.28362,-7.19562 0.20095,-7.51341 -2.03708,-7.83039 -1.28299,-0.18171 -7.13299,0.93993 -13,2.49253 -10.07907,2.66725 -11.82532,2.82333 -31.6673,2.83039 -27.74344,0.01 -36.97084,-1.85613 -55.40781,-11.2048 -12.10587,-6.13841 -12.8421,-6.37347 -19.06288,-6.08637 -5.11533,0.23609 -6.53449,-0.0156 -6.77528,-1.20136 -0.24977,-1.23008 1.0281,-1.48862 7.10145,-1.43678 6.85147,0.0585 7.92039,0.37258 14.27527,4.19477 16.09957,9.68319 26.44313,12.19008 53.40158,12.94255 21.13415,0.5899 32.13261,-0.37348 42.95847,-3.76284 4.12561,-1.29164 7.76952,-1.81851 10,-1.44588 2.4962,0.41702 5.29009,-0.13956 9.67848,-1.92806 9.37482,-3.82074 13.61512,-4.24824 16.06412,-1.61955 1.10465,1.18571 2.28256,4.15555 2.61756,6.59963 0.33499,2.44409 1.77333,6.74133 3.1963,9.54941 1.42296,2.80809 2.36449,5.32833 2.09229,5.60054 -0.27221,0.2722 -1.33366,-1.23504 -2.35879,-3.34944 -2.75831,-5.6892 -5.68199,-10.33085 -6.51171,-10.33803 -1.42082,-0.0123 -1.83117,5.54694 -4.82827,65.41214 -0.54846,10.95515 -1.43285,24.90515 -1.96532,31 -1.3104,14.99954 -2.79957,41.9476 -3.98328,72.08154 -0.9766,24.8617 -2.01646,33.2597 -4.29786,34.7101 -1.50322,0.9557 -0.87748,1.0226 -15.54763,-1.664 z m 166.58428,-86.20204 c 0.67703,-0.27392 2.02703,-0.29059 3,-0.0371 0.97297,0.25354 0.41903,0.47766 -1.23097,0.49804 -1.65,0.0204 -2.44606,-0.18706 -1.76903,-0.46099 z m -7.17333,-1.2508 c -0.30822,-0.49871 0.34022,-0.67122 1.44098,-0.38337 2.33499,0.61061 2.63015,1.29011 0.5604,1.29011 -0.79254,0 -1.69316,-0.40803 -2.00138,-0.90674 z M 591.5,947.9319 c -1.62866,-0.6444 -1.39657,-0.80438 1.25,-0.86161 3.37975,-0.0731 4.14515,0.38016 2,1.18434 -0.6875,0.25773 -2.15,0.1125 -3.25,-0.32273 z M 275.44449,811.55136 c 2.04496,-4.98615 3.04923,-5.95318 2.13038,-2.05136 -0.38856,1.65 -1.39123,3.675 -2.22815,4.5 -1.3072,1.28859 -1.29342,0.94347 0.0978,-2.44864 z M 273.87244,799.25 c -1.24387,-1.58606 -1.2085,-1.62143 0.37756,-0.37756 0.9625,0.75485 1.75,1.54235 1.75,1.75 0,0.82304 -0.82119,0.29331 -2.12756,-1.37244 z m 412.8244,-10.49873 c -0.32733,-5.05246 -0.40562,-9.37582 -0.17397,-9.60747 1.03835,-1.03835 2.47713,5.56116 2.47713,11.36228 0,9.80912 -1.63465,8.56366 -2.30316,-1.75481 z m -419.13174,-2.7654 c -0.32527,-1.36723 -0.21106,-3.83587 0.2538,-5.48587 l 0.8452,-3 0.71436,3.75586 c 0.85413,4.49069 -0.82703,8.87588 -1.81336,4.73001 z M 282.05551,758.5 c -0.006,-0.55 0.86895,-2.125 1.94449,-3.5 1.07554,-1.375 1.96553,-1.98735 1.97776,-1.36078 0.0122,0.62656 -0.86279,2.20156 -1.94449,3.5 -1.0817,1.29843 -1.9717,1.91078 -1.97776,1.36078 z M 709,757 c 1.375,-1.07554 2.89819,-1.96553 3.38486,-1.97776 0.48667,-0.0122 -0.25931,0.87776 -1.65773,1.97776 -1.39842,1.1 -2.92161,1.98999 -3.38486,1.97776 C 706.87902,758.96553 707.625,758.07554 709,757 z M 518.25,707.72281 c -2.77868,-1.27009 -2.85127,-3.14296 -0.25,-6.44994 2.39308,-3.0423 2.44593,-3.89416 0.47595,-7.67165 -1.63762,-3.1402 -1.28614,-4.48912 0.74988,-2.87792 2.57862,2.04058 6.93181,2.11906 8.89059,0.16028 2.24597,-2.24597 2.40178,-4.20862 0.46194,-5.81855 -1.09789,-0.91116 -1.90882,-0.88211 -3.5609,0.12756 -1.85682,1.13479 -2.32927,1.05112 -3.57836,-0.63372 C 520.64759,683.49125 520,681.77417 520,680.74313 520,677.72557 518.08499,675 515.96482,675 514.32575,675 514,675.69156 514,679.17126 c 0,2.41811 0.67161,4.91338 1.59796,5.93699 2.20503,2.43652 0.94559,4.25302 -1.89481,2.73288 -1.19651,-0.64035 -4.50434,-1.07005 -7.35075,-0.9549 -2.8464,0.11516 -5.46669,-0.26213 -5.82286,-0.83843 -0.81924,-1.32556 -5.21113,-1.37202 -6.01973,-0.0637 -0.33452,0.54127 0.98892,2.58127 2.94098,4.53333 3.70384,3.70383 4.22987,4.94383 2.54026,5.98807 -1.99815,1.23493 -4.7794,-0.64105 -7.82848,-5.28038 -1.70801,-2.59883 -3.66191,-5.48631 -4.34199,-6.41661 -1.00939,-1.38079 -0.92279,-2.03812 0.47146,-3.57874 0.96025,-1.06107 1.70796,-3.50065 1.70796,-5.57264 0,-2.88166 0.70875,-4.33333 3.25,-6.65668 3.5651,-3.25942 3.88183,-3.27164 19.25,-0.74285 6.9691,1.14675 9.71918,2.7768 12.27599,7.27631 0.94548,1.66388 1.39437,1.77172 2.9206,0.70161 0.99188,-0.69544 3.04091,-1.75196 4.55341,-2.34782 1.5125,-0.59586 2.75,-1.66991 2.75,-2.38678 0,-1.57375 -6.78129,-5.75415 -8.0561,-4.96628 -1.30382,0.80581 -4.9439,-1.36549 -4.9439,-2.94901 0,-0.73919 1.15525,-3.86738 2.56723,-6.95153 3.70636,-8.09577 1.54885,-10.05526 -5.38395,-4.88982 -4.57344,3.40754 -5.14881,4.18846 -5.16797,7.01416 -0.0136,1.99952 0.21115,2.11705 1.95973,1.02504 2.54503,-1.58939 5.2237,0.41775 3.22496,2.41649 -0.66,0.66 -1.2,2.01 -1.2,3 0,3.03516 -3.85772,2.24056 -4.61219,-0.95 -0.94695,-4.00456 -4.29584,-7.25 -7.48108,-7.25 -3.76178,0 -8.84271,-3.03551 -9.52872,-5.69277 -0.322,-1.24726 -1.49574,-2.32525 -2.72205,-2.5 -3.38018,-0.48168 -3.25987,-4.12129 0.2334,-7.06068 3.88186,-3.26637 12.53275,-5.47105 14.63186,-3.72894 0.81333,0.675 1.47878,1.83562 1.47878,2.57915 0,1.78168 5.44209,4.55456 7.43665,3.78917 0.90892,-0.34878 1.56335,-1.78625 1.56335,-3.4339 0,-1.5587 0.43526,-3.103 0.96725,-3.43179 0.53198,-0.32878 0.70073,-1.93034 0.375,-3.55901 -0.53816,-2.6908 -0.34814,-2.96123 2.08079,-2.96123 2.89155,0 11.8423,5.31785 15.0746,8.95618 1.0987,1.23672 3.14056,2.8396 4.53746,3.56197 1.5681,0.8109 4.02446,4.23837 6.4203,8.95855 2.13426,4.20483 4.76406,8.26404 5.844,9.02045 2.0873,1.46201 1.73109,4.50285 -0.52747,4.50285 -0.70996,0 -1.8529,0.9 -2.53986,2 -0.90504,1.4492 -2.33202,2 -5.18153,2 -5.19218,0 -5.8298,1.40066 -2.16306,4.75158 3.71212,3.39239 6.44455,9.62373 5.51272,12.57182 -1.26358,3.99768 -5.36566,8.35758 -9.65454,10.26134 -2.33511,1.03651 -6.04566,3.7651 -8.24566,6.06353 -4.30718,4.49988 -9.097,5.97281 -13.25,4.07454 z m 254.24916,-39.72116 c 1.44942,-2.86028 2.86144,-4.97438 3.13783,-4.69799 0.6472,0.6472 -3.26764,8.35003 -4.69077,9.22958 -0.5953,0.36791 0.10353,-1.6713 1.55294,-4.53159 z M 489,660.5 c 0,-5.63617 1.12965,-6.99478 2.96482,-3.56574 1.38894,2.59527 1.3094,6.39152 -0.16482,7.86574 -2.19016,2.19016 -2.8,1.25363 -2.8,-4.3 z m 292.14504,-2.95596 c 1.29523,-1.35077 2.51447,-1.99725 2.70942,-1.43662 0.19495,0.56063 -0.48005,1.6515 -1.5,2.42415 -3.00798,2.27866 -3.75579,1.66805 -1.20942,-0.98753 z M 777,641 c 0,-1.86667 0.26667,-2.13333 1.2,-1.2 0.93333,0.93333 0.93333,1.46667 0,2.4 -0.93333,0.93333 -1.2,0.66667 -1.2,-1.2 z m 2,-18.05902 c 0,-1.13246 0.43035,-1.79305 0.95633,-1.46797 0.52598,0.32507 0.70283,1.25163 0.39301,2.05902 C 779.55611,625.59914 779,625.35555 779,622.94098 z M 379,406.68806 c 0,-0.17157 1.38724,-1.33758 3.08276,-2.59113 l 3.08276,-2.27918 -1.69777,2.59113 C 382.53398,405.83399 381.14673,407 380.38499,407 379.62325,407 379,406.85963 379,406.68806 z"
       id="path2991"
       inkscape:connector-curvature="0" />
    <path
       style="fill:#5b5a1a"
       d="m 391.14669,1044.5461 c -7.22794,-1.3237 -12.73902,-2.8399 -13.28296,-3.6542 -0.51131,-0.7656 -0.66205,-3.8669 -0.33498,-6.8919 0.75923,-7.022 6.36815,-41.02416 6.91256,-41.90504 0.83891,-1.35739 2.66119,-21.72933 5.55441,-62.09496 1.63599,-22.825 3.86069,-48.7 4.94378,-57.5 1.08309,-8.8 2.10228,-19.375 2.26488,-23.5 0.28362,-7.19562 0.20095,-7.51341 -2.03708,-7.83039 -1.28299,-0.18171 -7.13299,0.93993 -13,2.49253 -10.07907,2.66725 -11.82532,2.82333 -31.6673,2.83039 -27.74344,0.01 -36.97084,-1.85613 -55.40781,-11.2048 -12.10587,-6.13841 -12.8421,-6.37347 -19.06288,-6.08637 -5.11533,0.23609 -6.53449,-0.0156 -6.77528,-1.20136 -0.24977,-1.23008 1.0281,-1.48862 7.10145,-1.43678 6.85147,0.0585 7.92039,0.37258 14.27527,4.19477 16.09957,9.68319 26.44313,12.19008 53.40158,12.94255 21.13415,0.5899 32.13261,-0.37348 42.95847,-3.76284 4.12561,-1.29164 7.76952,-1.81851 10,-1.44588 2.48134,0.41453 5.26837,-0.13076 9.51513,-1.86168 9.24613,-3.7686 12.57739,-4.13904 15.62974,-1.73806 1.83241,1.44137 2.76227,3.34665 3.20315,6.56325 0.34168,2.49277 1.78547,6.82984 3.20844,9.63792 1.42296,2.80809 2.36449,5.32833 2.09229,5.60054 -0.27221,0.2722 -1.33366,-1.23504 -2.35879,-3.34944 -2.75831,-5.6892 -5.68199,-10.33085 -6.51171,-10.33803 -1.42082,-0.0123 -1.83117,5.54694 -4.82827,65.41214 -0.54846,10.95515 -1.43285,24.90515 -1.96532,31 -1.3104,14.99954 -2.79957,41.9476 -3.98328,72.08154 -0.9766,24.8617 -2.01646,33.2597 -4.29786,34.7101 -1.50322,0.9557 -0.87748,1.0226 -15.54763,-1.664 z m 15.17924,-4.6209 c 0.48253,-1.8838 1.02013,-13.7752 1.19466,-26.4252 l 0.31733,-23 -1.99727,4.9919 c -2.52776,6.3178 -3.09005,6.9665 -9.70741,11.1996 -3.70261,2.3685 -6.30872,3.363 -8.11739,3.0975 -2.60609,-0.3825 -2.71126,-0.1836 -4.84411,9.16 -1.1991,5.2531 -2.29078,11.9926 -2.42596,14.9768 l -0.24578,5.4258 11.5,2.2218 c 6.325,1.2219 11.93843,2.1216 12.4743,1.9994 0.53586,-0.1223 1.36909,-1.7637 1.85163,-3.6476 z m 151.40504,-81.58114 c 0.67703,-0.27392 2.02703,-0.29059 3,-0.0371 0.97297,0.25354 0.41903,0.47766 -1.23097,0.49804 -1.65,0.0204 -2.44606,-0.18706 -1.76903,-0.46099 z m -7.17333,-1.2508 c -0.30822,-0.49871 0.34022,-0.67122 1.44098,-0.38337 2.33499,0.61061 2.63015,1.29011 0.5604,1.29011 -0.79254,0 -1.69316,-0.40803 -2.00138,-0.90674 z M 591.5,947.9319 c -1.62866,-0.6444 -1.39657,-0.80438 1.25,-0.86161 3.37975,-0.0731 4.14515,0.38016 2,1.18434 -0.6875,0.25773 -2.15,0.1125 -3.25,-0.32273 z M 275.44449,811.55136 c 2.04496,-4.98615 3.04923,-5.95318 2.13038,-2.05136 -0.38856,1.65 -1.39123,3.675 -2.22815,4.5 -1.3072,1.28859 -1.29342,0.94347 0.0978,-2.44864 z M 273.87244,799.25 c -1.24387,-1.58606 -1.2085,-1.62143 0.37756,-0.37756 0.9625,0.75485 1.75,1.54235 1.75,1.75 0,0.82304 -0.82119,0.29331 -2.12756,-1.37244 z m 412.8244,-10.49873 c -0.32733,-5.05246 -0.40562,-9.37582 -0.17397,-9.60747 1.03835,-1.03835 2.47713,5.56116 2.47713,11.36228 0,9.80912 -1.63465,8.56366 -2.30316,-1.75481 z m -419.13174,-2.7654 c -0.32527,-1.36723 -0.21106,-3.83587 0.2538,-5.48587 l 0.8452,-3 0.71436,3.75586 c 0.85413,4.49069 -0.82703,8.87588 -1.81336,4.73001 z M 282.05551,758.5 c -0.006,-0.55 0.86895,-2.125 1.94449,-3.5 1.07554,-1.375 1.96553,-1.98735 1.97776,-1.36078 0.0122,0.62656 -0.86279,2.20156 -1.94449,3.5 -1.0817,1.29843 -1.9717,1.91078 -1.97776,1.36078 z M 709,757 c 1.375,-1.07554 2.89819,-1.96553 3.38486,-1.97776 0.48667,-0.0122 -0.25931,0.87776 -1.65773,1.97776 -1.39842,1.1 -2.92161,1.98999 -3.38486,1.97776 C 706.87902,758.96553 707.625,758.07554 709,757 z M 518,703.62244 c 0,-0.75765 0.68243,-1.94392 1.51651,-2.63614 0.83408,-0.69222 1.39658,-2.43482 1.25,-3.87244 -0.20893,-2.04908 0.21965,-2.68291 1.98349,-2.93341 3.01333,-0.42796 2.87909,1.44902 -0.47344,6.61938 C 519.49392,705.09131 518,706.07732 518,703.62244 z m -22.39369,-11.206 c -0.37373,-0.97391 -0.15024,-1.43108 0.58051,-1.1875 1.49484,0.49828 2.31789,2.77106 1.0035,2.77106 -0.53699,0 -1.24979,-0.7126 -1.58401,-1.58356 z M 530.88485,690.25 c -0.0633,-0.4125 -0.0392,-1.51313 0.0537,-2.44585 0.0929,-0.93271 -0.55351,-3.0927 -1.43637,-4.79998 -2.06546,-3.99415 -1.27719,-6.30183 2.75955,-8.07873 4.19231,-1.84538 4.98393,-5.5747 1.37557,-6.48034 -1.37091,-0.34408 -2.736,-1.25998 -3.03354,-2.03535 C 530.30616,665.63427 528.72545,665 527.0904,665 c -3.92031,0 -4.82392,-1.71093 -2.25849,-4.27635 1.92854,-1.92855 2.37715,-1.97952 6.37135,-0.72404 2.36321,0.74282 5.22574,2.17179 6.36119,3.17548 1.13545,1.0037 3.24365,1.82491 4.6849,1.82491 3.72676,0 8.27027,1.88396 7.16349,2.97033 -0.50206,0.49281 -2.71284,1.03859 -4.91284,1.21284 -3.92291,0.31072 -3.9978,0.3891 -3.88594,4.06683 0.0627,2.0625 -0.27476,3.75 -0.75,3.75 -0.47523,0 -0.86406,0.8625 -0.86406,1.91667 0,1.05416 -0.35871,2.06666 -0.79713,2.25 -0.43842,0.18333 -1.79073,2.47083 -3.00512,5.08333 -1.96379,4.22465 -3.98989,6.10376 -4.3129,4 z m -41.57406,-5.88247 c -0.34454,-0.89785 -0.10541,-2.46675 0.53139,-3.48643 0.6368,-1.01968 1.15782,-2.98507 1.15782,-4.36753 0,-3.03329 1.07671,-3.19128 3.5,-0.51357 2.33678,2.58211 2.88299,2.52142 4.5,-0.5 2.11941,-3.96015 3.74072,-3.02066 4.51608,2.61693 l 0.70376,5.11692 3.72296,-0.49935 c 2.74996,-0.36885 3.98933,-0.0727 4.74218,1.13307 0.89013,1.42568 0.33284,1.66293 -4.40023,1.87328 -3.38161,0.15029 -6.55084,-0.34421 -8.4283,-1.31508 -2.72464,-1.40897 -3.23447,-1.4081 -5.39746,0.009 -3.04412,1.99458 -4.36357,1.97731 -5.1482,-0.0674 z m 32.35588,-1.0342 C 521.3,682.96667 521,681.45738 521,679.97936 c 0,-1.47802 -1.07777,-3.85025 -2.39505,-5.27162 -1.31728,-1.42137 -2.14228,-2.83708 -1.83334,-3.14602 1.31541,-1.3154 3.29156,-0.34546 5.68235,2.78903 1.99452,2.61495 2.41743,4.0423 1.92589,6.5 -0.61894,3.09471 -1.39289,3.80288 -2.71318,2.48258 z m 250.83249,-15.33168 c 1.44942,-2.86028 2.86144,-4.97438 3.13783,-4.69799 0.6472,0.6472 -3.26764,8.35003 -4.69077,9.22958 -0.5953,0.36791 0.10353,-1.6713 1.55294,-4.53159 z M 504.18689,670.25 C 504.54085,668.39288 509,667.13777 509,668.89527 509,669.86566 505.90128,672 504.49242,672 c -0.35149,0 -0.48898,-0.7875 -0.30553,-1.75 z m 6.50696,1.11052 c -0.35171,-0.35171 -0.4123,-1.00706 -0.13464,-1.45633 0.62351,-1.00885 3.44079,-0.024 3.44079,1.2028 0,1.0261 -2.35313,1.20654 -3.30615,0.25353 z M 490,660.28571 c 0,-2.5009 0.12723,-2.58706 1.61832,-1.09596 0.89008,0.89008 1.31353,2.11151 0.94099,2.71429 C 491.33209,663.88972 490,663.0474 490,660.28571 z m 291.14504,-2.74167 c 1.29523,-1.35077 2.51447,-1.99725 2.70942,-1.43662 0.19495,0.56063 -0.48005,1.6515 -1.5,2.42415 -3.00798,2.27866 -3.75579,1.66805 -1.20942,-0.98753 z M 500.25,654.28874 c -3.07738,-2.09629 -2.82274,-3.76155 0.84695,-5.53883 2.71778,-1.31626 3.45303,-1.32225 6.00547,-0.0489 2.73409,1.36394 4.89758,4.04212 4.89758,6.0627 0,1.53819 -9.34948,1.16028 -11.75,-0.47494 z m 35.5,-0.82479 c -0.9625,-1.28709 -1.75,-2.74544 -1.75,-3.24077 0,-0.49533 -3.0348,-2.84908 -6.74399,-5.23056 -6.39384,-4.10514 -7.08814,-5.92025 -1.75228,-4.58104 3.14305,0.78886 9.28415,7.14498 11.09833,11.48694 1.73842,4.16062 1.4647,4.6635 -0.85206,1.56543 z m -42.18124,-6.35269 c -0.64896,-1.05005 5.16309,-5.67861 8.92801,-7.11003 C 506.35873,638.53291 508,638.77114 508,640.8 c 0,0.99 0.50079,2.30079 1.11287,2.91287 0.61207,0.61207 0.76839,1.67025 0.34735,2.35149 -0.5814,0.94074 -1.04972,0.84993 -1.9473,-0.37758 -1.69142,-2.31315 -10.2997,-1.87575 -11.08455,0.56322 -0.60664,1.88516 -1.97255,2.29655 -2.85961,0.86126 z M 777,641 c 0,-1.86667 0.26667,-2.13333 1.2,-1.2 0.93333,0.93333 0.93333,1.46667 0,2.4 -0.93333,0.93333 -1.2,0.66667 -1.2,-1.2 z m 2,-18.05902 c 0,-1.13246 0.43035,-1.79305 0.95633,-1.46797 0.52598,0.32507 0.70283,1.25163 0.39301,2.05902 C 779.55611,625.59914 779,625.35555 779,622.94098 z M 379,406.68806 c 0,-0.17157 1.38724,-1.33758 3.08276,-2.59113 l 3.08276,-2.27918 -1.69777,2.59113 C 382.53398,405.83399 381.14673,407 380.38499,407 379.62325,407 379,406.85963 379,406.68806 z"
       id="path2989"
       inkscape:connector-curvature="0" />
  </g>
  <rect
     style="opacity:0.1;fill:#fff8f8;fill-opacity:1;fill-rule:nonzero;stroke:#ff0000;stroke-width:0;stroke-linecap:round;stroke-linejoin:round;stroke-miterlimit:4;stroke-opacity:1;stroke-dasharray:none;stroke-dashoffset:0"
     id="rect3773"
     width="767.8811"
     height="730.34772"
     x="-79.939804"
     y="-53.753071" />
</svg>
