<svg xmlns="http://www.w3.org/2000/svg" xmlns:xlink="http://www.w3.org/1999/xlink" version="1.1" x="0px" y="0px" viewBox="0 0 100 125" style="enable-background:new 0 0 100 100;" xml:space="preserve"><path d="M77.765,53.161l0.028-0.088c0.883-1.129,2.457-3.682,2.457-7.536c0-2.918-1.042-5.815-2.758-7.902  c2.242-2.86,4.261-5.618,6.004-8.219c6.515-9.719,8.348-15.776,5.606-18.518c-3.184-3.182-11.109-0.092-23.565,9.185  c-0.744,0.554-0.898,1.607-0.343,2.351c0.552,0.743,1.602,0.899,2.352,0.344c13.423-9.997,18.471-10.215,19.18-9.504  c0.591,0.591,0.66,4.305-6.021,14.271c-1.246,1.858-2.642,3.802-4.156,5.806c-0.313-1.525-0.964-2.642-1.597-3.414  c-1.591-1.935-4.119-3.044-6.939-3.044c-1.482,0-2.938,0.396-4.215,1.132c-1.764-1.291-3.814-2.138-6.018-2.483  c-1.584-1.552-3.706-2.431-5.916-2.431c-1.626,0-3.21,0.474-4.57,1.353c-0.018-0.01-0.036-0.018-0.054-0.028  c-0.145-0.08-0.292-0.155-0.439-0.228c-0.143-0.07-0.289-0.136-0.437-0.201c-0.121-0.053-0.242-0.107-0.365-0.155  c-0.236-0.092-0.478-0.177-0.723-0.253c-0.085-0.026-0.171-0.051-0.257-0.075c-0.26-0.074-0.524-0.14-0.791-0.195  c-0.029-0.005-0.056-0.013-0.085-0.019c-0.299-0.058-0.604-0.1-0.912-0.133c-0.072-0.008-0.145-0.014-0.218-0.021  c-0.313-0.027-0.628-0.046-0.948-0.046c-3.199,0-6.173,1.385-8.142,3.749c-4.787,0.096-8.718,3.549-9.322,7.984  c-1.135-1.465-2.208-2.899-3.204-4.289c-5.108-7.007-8.47-13.562-8.369-16.301c0-0.487,0.084-0.824,0.252-0.975  c0.151-0.168,0.487-0.252,0.975-0.252c2.874-0.118,9.898,3.596,17.36,9.124c0.722,0.539,1.815,0.37,2.353-0.353  c0.268-0.37,0.369-0.807,0.302-1.26c-0.067-0.436-0.302-0.823-0.672-1.092c-9.209-6.672-15.175-9.68-19.343-9.78h-0.034  c-0.958,0-2.32,0.218-3.328,1.243c-1.026,1.009-1.227,2.386-1.227,3.345c0.084,3.983,2.856,9.612,8.99,18.267  c1.176,1.636,2.456,3.33,3.815,5.062c-1.728,1.792-2.722,4.155-2.722,6.694c0,2.591,1.041,5.043,2.93,6.902  c0.052,0.051,0.099,0.105,0.145,0.163c-0.393,1.194-0.591,2.434-0.591,3.699c0,5.843,4.234,10.691,9.756,11.598l-0.594,3.222  c-0.168,0.912,0.436,1.789,1.348,1.957c0.361,0.065,0.714,0.007,1.022-0.14c0.47-0.224,0.833-0.657,0.935-1.208l0.675-3.666h4.54  c0.089,0,0.175-0.013,0.261-0.026c0.17,0.009,0.339,0.026,0.512,0.026c0.924,0,1.681-0.757,1.681-1.68  c0-0.116-0.012-0.228-0.035-0.337c-0.157-0.765-0.837-1.344-1.646-1.344c-0.705,0-1.381-0.121-2.016-0.336  c-1.001-0.339-1.892-0.922-2.605-1.681c-1.101-1.169-1.782-2.749-1.782-4.487c0-0.942-0.756-1.681-1.68-1.681  c-0.925,0-1.681,0.739-1.681,1.681c0.007,2.119,0.683,4.083,1.818,5.694c0.191,0.272,0.397,0.533,0.614,0.784  c-0.256-0.015-0.509-0.043-0.759-0.081c-3.958-0.618-7.003-4.098-7.003-8.295c0-1.102,0.21-2.177,0.625-3.199  c0.162-0.398,0.164-0.843,0.008-1.244c-0.271-0.692-0.67-1.302-1.189-1.814c-1.244-1.224-1.928-2.825-1.928-4.508  c0-1.495,0.541-2.9,1.491-4.029c4.851,5.953,10.588,12.284,16.727,18.422c0.93,0.93,1.862,1.849,2.796,2.757  c0.581,0.566,1.164,1.125,1.746,1.681c0.552,0.527,1.103,1.048,1.654,1.565c-0.042,0.038-0.084,0.077-0.125,0.115  c-0.122,0.111-0.245,0.226-0.367,0.337c-4.004,3.634-7.938,6.961-11.684,9.888c-2.715,2.121-5.334,4.035-7.803,5.691  c-9.963,6.68-13.681,6.614-14.27,6.022c-0.695-0.694-0.508-5.616,9.129-18.676c0.552-0.747,0.392-1.799-0.354-2.35  c-0.748-0.552-1.799-0.392-2.35,0.355c-8.974,12.16-11.936,19.915-8.802,23.048c0.819,0.819,1.933,1.23,3.353,1.23  c3.334,0,8.349-2.267,15.166-6.837c2.353-1.577,4.837-3.384,7.407-5.373c0.424-0.328,0.847-0.656,1.275-0.994l-0.602,2.411  L37,81.523c-0.225,0.901,0.323,1.813,1.223,2.038c0.137,0.034,0.274,0.049,0.41,0.049c0.752,0,1.438-0.509,1.629-1.273l1.662-6.653  c0.434-1.47,1.637-2.563,3.141-2.853l5.123-0.989c1.212-0.065,2.397-0.76,3.333-1.719c3.489,3.067,6.92,5.903,10.21,8.429  c0.302,0.235,0.655,0.353,1.026,0.353c0.52,0,1.008-0.235,1.326-0.655c0.573-0.74,0.438-1.799-0.302-2.353  c-3.388-2.606-6.926-5.541-10.521-8.722c0.07-0.266,0.114-0.528,0.133-0.785c1.14-0.297,2.301-0.738,3.346-1.296  c2.582-1.377,5.18-2.075,7.722-2.075c0.017,0,0.034,0,0.052,0l1.5,0.004c2.636,0,5.105-1.048,6.953-2.95  C76.776,58.21,77.763,55.765,77.765,53.161z M68.012,59.663l-1.487-0.004c-0.023,0-0.044,0-0.066,0c-3.099,0-6.228,0.83-9.304,2.47  c-0.856,0.456-1.846,0.822-2.785,1.052c-0.142,0.035-0.281,0.066-0.42,0.094c0.092-0.087,0.184-0.174,0.276-0.262  c1.482-1.416,2.965-2.863,4.445-4.342c5.74-5.74,11.041-11.539,15.615-17.057c0.176-0.2,0.34-0.4,0.492-0.601  c0.184-0.224,0.368-0.448,0.55-0.672c1.066,1.581,1.562,3.577,1.562,5.196c0,1.056-0.161,1.972-0.389,2.747  c-0.125-0.222-0.257-0.441-0.4-0.654c-0.487-0.739-1.58-0.958-2.32-0.454c-0.385,0.252-0.639,0.622-0.722,1.059  c-0.084,0.437,0,0.891,0.253,1.26c0.692,1.056,1.075,2.306,1.088,3.592c0.017,1.752-0.632,3.397-1.844,4.644  C71.345,58.977,69.732,59.663,68.012,59.663z M50,68.486c-0.107,0-0.213,0.009-0.318,0.03l-1.778,0.343  c0.696-0.622,1.394-1.253,2.094-1.894c0.336,0.306,0.671,0.61,1.005,0.913C50.634,68.233,50.249,68.486,50,68.486z M43.698,56.285  c-6.012-6.011-11.628-12.196-16.369-18.009c0.893-0.367,1.841-0.563,2.83-0.563c0.928,0,1.681-0.753,1.681-1.681  c0-0.928-0.753-1.681-1.681-1.681c-0.705,0-1.397,0.07-2.073,0.2c0.707-2.48,3.147-4.317,6.141-4.317c0.012,0,0.023,0,0.034,0  c0.112,0.015,0.223,0.028,0.337,0.036c0.596,0.041,1.172-0.236,1.508-0.732c1.305-1.921,3.532-3.067,5.958-3.067  c0.223,0,0.443,0.012,0.66,0.031c0.073,0.006,0.145,0.016,0.218,0.025c0.142,0.016,0.283,0.036,0.423,0.06  c0.089,0.016,0.177,0.034,0.265,0.052c0.115,0.024,0.228,0.052,0.34,0.082c0.066,0.017,0.132,0.036,0.198,0.056l-0.011-0.01  c0.042,0.012,0.081,0.029,0.123,0.041c0.075,0.024,0.148,0.051,0.222,0.076c0.711,0.245,1.368,0.59,1.95,1.022  c1.114,0.827,1.952,1.96,2.368,3.263c0.062,0.194,0.116,0.391,0.158,0.592c-2.244,0.827-3.833,2.826-3.833,5.161  c0,0.928,0.752,1.68,1.68,1.68c0.928,0,1.681-0.752,1.681-1.68c0-1.217,1.24-2.207,2.764-2.207c1.524,0,2.764,0.99,2.764,2.207  c0,0.928,0.752,1.68,1.681,1.68c0.929,0,1.68-0.752,1.68-1.68c0-2.742-2.192-5.021-5.067-5.48c-0.296-1.736-1.057-3.325-2.17-4.636  c1.907-0.643,4.171-0.143,5.547,1.428c0.276,0.315,0.66,0.516,1.076,0.563c1.698,0.191,3.282,0.77,4.657,1.685  c0.023,0.064,0.042,0.129,0.073,0.191c0.202,0.403,0.538,0.706,0.942,0.84c0.017,0,0.017,0,0.017,0  c1.244,0.504,1.293,0.974,1.378,1.714l0.016,0.134c0,0.269-0.035,0.521-0.067,0.656c-0.016,0.084-0.035,0.134-0.035,0.151  c0,0.018,0,0.034-0.016,0.051c-0.134,0.42-0.1,0.874,0.102,1.26c0.2,0.403,0.553,0.706,0.974,0.84  c0.185,0.068,0.354,0.084,0.522,0.084c0.738,0,1.378-0.454,1.613-1.159V35.21c0.218-0.722,0.269-1.395,0.269-1.831  c0.052-0.789-0.168-1.863-0.783-2.845c2.153-0.671,4.689,0.049,5.911,1.537c0.963,1.172,1.247,2.826,0.853,4.913  c-0.096,0.262-0.428,1.088-1.075,1.955c-0.129,0.173-0.27,0.347-0.425,0.519c-0.097,0.107-0.196,0.213-0.304,0.318  c-0.12,0.117-0.211,0.25-0.289,0.389c-1.229,1.469-2.507,2.957-3.834,4.458c-1.21-1.423-2.842-2.385-4.577-2.677  c-1.695-0.287-3.356,0.084-4.684,1.042c-0.753,0.543-0.922,1.593-0.379,2.346c0.543,0.753,1.593,0.925,2.345,0.38  c0.76-0.549,1.593-0.548,2.158-0.455c1.093,0.185,2.135,0.88,2.858,1.907c-2.747,3.023-5.663,6.083-8.709,9.128  c-1.762,1.762-3.529,3.478-5.29,5.147c-0.334,0.317-0.669,0.631-1.003,0.944c-0.339-0.317-0.678-0.636-1.017-0.957  C47.219,59.757,45.454,58.041,43.698,56.285z M50.998,46.896c-1.146-0.466-2.384-0.483-3.4-0.048  c-0.539,0.23-1.256,0.695-1.611,1.593c-0.342,0.862-1.314,1.285-2.18,0.946c-0.864-0.341-1.287-1.317-0.947-2.18  c0.134-0.34,0.302-0.661,0.493-0.967c0-0.007-0.002-0.014-0.002-0.02c0-1.159-1.147-2.101-2.557-2.101  c-0.719,0-1.386,0.242-1.878,0.681c-0.694,0.617-1.755,0.558-2.373-0.135c-0.618-0.692-0.558-1.754,0.135-2.373  c1.109-0.989,2.57-1.535,4.116-1.535c2.337,0,4.356,1.26,5.317,3.08c0.056-0.025,0.108-0.056,0.165-0.08  c1.836-0.784,4.021-0.776,5.987,0.025c3.809,1.547,5.806,5.594,4.452,9.021c-0.259,0.661-0.893,1.064-1.563,1.064  c-0.205,0-0.415-0.038-0.617-0.118c-0.863-0.341-1.286-1.317-0.945-2.181C54.269,49.849,53.106,47.752,50.998,46.896z   M90.333,85.745c0,0.958-0.202,2.335-1.244,3.361c-1.008,1.008-2.37,1.227-3.31,1.227h-0.035c-2.637-0.034-5.949-1.294-10.755-4.068  c0,0,0,0-0.018,0c-0.369-0.235-0.638-0.587-0.755-1.007c-0.118-0.437-0.051-0.892,0.184-1.278c0.438-0.773,1.513-1.059,2.286-0.605  c3.765,2.218,7.193,3.597,8.974,3.597h0.084c0.487,0,0.824-0.085,0.975-0.253c0.169-0.151,0.253-0.487,0.253-0.974  c0.117-3.059-4.118-10.823-10.285-18.906c-0.27-0.37-0.388-0.806-0.32-1.244c0.051-0.454,0.285-0.84,0.656-1.11  c0.706-0.554,1.797-0.403,2.352,0.32C86.736,74.703,90.231,81.358,90.333,85.745z M71.562,82.149  c-0.304,0.454-0.824,0.723-1.379,0.723c-0.336,0-0.673-0.101-0.958-0.302c-0.755-0.521-0.957-1.58-0.42-2.336  c0.506-0.722,1.58-0.924,2.319-0.437c0,0,0.018,0,0.018,0.017C71.898,80.334,72.099,81.392,71.562,82.149z"/><text x="0" y="115" fill="#000000" font-size="5px" font-weight="bold" font-family="'Helvetica Neue', Helvetica, Arial-Unicode, Arial, Sans-serif">Created by Pike Picture</text><text x="0" y="120" fill="#000000" font-size="5px" font-weight="bold" font-family="'Helvetica Neue', Helvetica, Arial-Unicode, Arial, Sans-serif">from the Noun Project</text></svg>